<svg width="373" height="373" version="1.1" xmlns="http://www.w3.org/2000/svg" desc="Created with imagetracer.js version 1.2.6" ><path fill="rgb(0,0,0)" stroke="rgb(0,0,0)" stroke-width="1" opacity="0" d="M 0 0 L 373 0 L 373 373 L 0 373 L 0 0 Z M 185 3 L 184 4 L 170 4 L 169 5 L 150 7 L 117 17 L 91 30 L 57 56 L 52 62 L 52 65 L 56 67 L 58 67 L 81 46 Q 96 34 115 26 L 140 17 L 174 11 L 201 11 L 209 13 L 216 13 L 247 21 L 280 37 Q 300 49 315 66 L 320 66 Q 322 65 321 62 Q 297 35 262 19 L 229 8 L 213 5 L 206 5 L 205 4 L 190 4 L 185 3 Z M 54 88 L 52 90 L 52 183 L 51 184 L 52 186 L 52 226 L 51 227 L 52 249 L 56 265 Q 62 281 72 293 Q 81 304 95 311 L 112 318 L 126 321 L 148 321 L 162 318 Q 177 313 189 304 Q 200 295 208 282 L 215 266 L 217 258 L 217 250 L 208 251 Q 205 274 192 288 L 175 302 L 156 310 L 145 312 L 128 312 L 114 309 Q 100 305 91 297 Q 79 289 72 277 L 65 262 L 61 242 L 61 96 L 62 95 L 54 88 Z M 194 89 L 192 91 L 192 232 L 194 233 L 201 233 L 201 232 L 201 230 L 202 228 L 202 90 L 194 89 Z M 210 89 L 207 90 L 206 95 L 206 193 L 207 194 L 207 231 L 213 230 L 216 230 L 216 90 L 210 89 Z M 223 89 L 221 92 L 221 94 L 222 98 L 223 99 L 336 99 L 341 90 L 320 90 L 319 89 L 223 89 Z M 179 90 L 177 92 L 177 230 L 178 232 L 181 233 Q 186 234 187 232 L 187 91 L 187 90 L 179 90 Z M 67 100 L 67 116 L 66 117 Q 65 122 67 124 L 66 128 L 66 244 L 69 258 L 73 268 L 82 282 L 100 297 L 116 304 L 130 307 L 144 307 L 161 303 Q 175 298 185 288 Q 198 275 203 254 L 200 252 L 193 253 Q 190 267 182 277 Q 173 288 158 294 L 148 297 L 139 297 L 138 298 L 118 295 Q 105 291 97 283 Q 80 270 76 245 L 76 106 L 70 100 L 67 100 Z M 223 104 L 221 106 L 221 225 L 222 227 Q 228 227 231 224 L 231 113 L 327 113 L 331 107 L 331 104 L 223 104 Z M 348 105 L 346 107 L 346 110 L 354 127 L 359 143 L 363 163 L 363 170 L 364 173 L 364 201 Q 361 202 363 209 L 361 215 L 360 226 L 355 243 Q 342 280 317 306 L 315 307 L 313 310 L 292 328 Q 277 339 259 347 L 237 355 L 207 361 L 170 361 L 169 360 L 150 358 L 126 351 Q 89 338 64 313 Q 34 286 19 246 L 11 214 L 10 199 L 9 198 L 9 175 L 7 174 Q 2 173 1 177 L 1 195 L 2 196 L 3 213 L 6 229 L 13 251 Q 25 282 46 306 Q 71 335 109 352 L 136 362 L 153 366 L 165 367 L 166 368 L 175 368 L 176 369 L 199 369 L 200 368 L 216 367 L 239 362 L 251 358 Q 284 346 309 324 L 337 294 L 349 275 L 357 259 L 367 229 L 370 214 L 371 194 L 372 193 L 371 167 L 370 166 L 368 148 L 360 121 L 353 107 Q 354 104 348 105 Z M 81 113 L 81 245 Q 84 260 92 271 Q 104 287 128 292 L 146 292 L 154 290 L 172 280 Q 183 271 188 255 Q 187 251 180 252 L 171 267 Q 161 279 143 283 L 131 283 L 120 280 L 104 270 L 97 261 L 91 245 L 91 120 L 90 117 L 84 113 L 81 113 Z M 238 118 L 236 120 L 236 220 L 238 221 L 244 219 L 246 215 L 246 213 L 246 156 L 245 155 L 245 139 L 246 137 L 246 135 Q 244 133 245 129 L 247 127 L 318 127 L 322 122 L 322 118 L 318 119 L 316 118 L 238 118 Z M 251 133 L 251 179 L 250 180 L 250 211 L 251 214 Q 257 214 260 210 L 260 142 L 310 142 L 314 135 L 314 133 L 251 133 Z M 306 180 L 302 185 Q 303 187 300 186 L 300 188 L 297 188 Q 293 189 294 195 L 298 197 L 305 196 Q 307 195 306 190 L 306 188 L 307 185 Q 309 179 306 180 Z M 281 184 L 280 187 L 283 192 Q 290 193 292 188 L 293 188 L 293 184 L 288 185 L 281 184 Z M 317 193 L 294 207 L 296 209 L 319 198 L 321 195 Q 320 192 317 193 Z M 286 199 L 259 216 L 237 227 L 211 235 L 195 236 L 194 237 L 192 236 L 190 237 L 174 235 L 163 231 Q 154 227 149 220 Q 146 219 147 223 L 148 224 L 143 218 L 139 215 Q 141 230 152 236 Q 154 235 153 238 L 164 244 L 173 247 L 186 248 L 187 249 L 208 248 L 233 241 Q 263 229 285 209 L 284 207 L 286 206 L 288 203 Q 290 198 286 199 Z M 257 233 L 253 235 L 251 237 L 251 263 L 250 264 L 251 267 L 251 283 L 255 283 L 260 279 L 260 234 L 257 233 Z M 243 240 L 236 244 L 236 326 L 237 328 L 245 329 L 246 324 L 246 284 L 245 283 L 246 281 L 246 250 L 245 249 L 245 241 L 243 240 Z M 228 246 L 224 247 L 221 250 L 221 277 L 222 279 L 228 283 L 231 283 L 231 247 L 228 246 Z " /><path fill="rgb(93,192,231)" stroke="rgb(93,192,231)" stroke-width="1" opacity="0.9803921568627451" d="M 169.5 6 L 205.5 6 L 228.5 10 L 248.5 16 Q 290.5 31.5 318 61.5 Q 319.1 64.8 316.5 64 Q 291.2 36.3 253.5 21 L 228.5 13 L 205.5 9 L 169.5 9 L 137.5 15 L 112.5 24 L 87.5 38 L 62 58 L 62 60 Q 59.3 58.9 60 61.5 Q 58.8 64.8 55 64 L 55 61.5 L 66.5 50 L 94.5 30 L 119.5 18 L 145.5 10 Q 151.6 10.6 154.5 8 L 168.5 7 L 169.5 6 Z " /><path fill="rgb(93,192,231)" stroke="rgb(93,192,231)" stroke-width="1" opacity="0.9803921568627451" d="M 54 91 L 59 94.5 L 60 101.5 L 59 106.5 L 60 107.5 L 60 247.5 Q 65.2 276.8 83.5 293 Q 94.2 303.3 109.5 309 L 124.5 313 L 140.5 314 L 157.5 311 L 174.5 304 Q 186.6 297.2 195 286.5 Q 206.9 273.1 210 252 L 216 252.5 L 214 262.5 L 208 277.5 Q 201.8 289.3 192.5 298 Q 178.7 311.2 157.5 317 L 147.5 319 L 125.5 319 Q 91 313 73 290.5 Q 58.5 274 54 247.5 L 54 91 Z " /><path fill="rgb(93,192,231)" stroke="rgb(93,192,231)" stroke-width="1" opacity="0.9803921568627451" d="M 181.5 91 L 185 92.5 L 185 229.5 L 183.5 231 L 179 230 L 180 224.5 L 179 223.5 L 179 188.5 L 180 187.5 L 180 92.5 L 181.5 91 Z " /><path fill="rgb(93,192,231)" stroke="rgb(93,192,231)" stroke-width="1" opacity="0.9803921568627451" d="M 195.5 91 Q 199.3 90.3 200 92.5 L 200 229.5 L 198.5 231 Q 194.8 231.8 194 229.5 L 194 92.5 L 195.5 91 Z " /><path fill="rgb(93,192,231)" stroke="rgb(93,192,231)" stroke-width="1" opacity="0.9803921568627451" d="M 210.5 91 L 214 92.5 L 214 227.5 L 212.5 229 L 209 227.5 L 209 92.5 L 210.5 91 Z " /><path fill="rgb(93,192,231)" stroke="rgb(93,192,231)" stroke-width="1" opacity="0.9803921568627451" d="M 224 91 L 228.5 92 L 229.5 91 L 334.5 91 L 337 91.5 Q 337.5 95.5 334.5 96 L 313.5 96 L 310.5 97 L 303.5 96 L 275.5 96 L 274.5 97 L 266.5 97 L 255.5 96 L 247.5 96 L 246.5 97 L 239.5 96 L 235.5 97 L 232.5 96 L 227.5 97 L 224 96 L 223 93.5 L 224 91 Z " /><path fill="rgb(93,192,231)" stroke="rgb(93,192,231)" stroke-width="1" opacity="0.9803921568627451" d="M 69 103 L 74 106.5 L 74 243.5 Q 78.4 270.1 95.5 284 Q 105.2 292.8 119.5 297 L 130.5 299 L 143.5 299 L 156.5 296 L 169.5 290 L 183 278.5 L 193 261.5 L 195 254 L 201 254.5 Q 195.9 274.9 182.5 287 Q 165.5 305 130.5 305 L 119.5 303 L 100.5 295 L 83 279.5 L 73 262.5 L 68 242.5 L 68 158.5 L 69 157.5 L 69 103 Z " /><path fill="rgb(93,192,231)" stroke="rgb(93,192,231)" stroke-width="1" opacity="0.9803921568627451" d="M 224.5 105 L 229.5 106 L 231.5 105 L 232.5 106 L 328 106 L 326 111 L 230.5 111 L 229 112.5 Q 230.4 123.4 228 130.5 L 229 131.5 L 229 222.5 Q 227.6 225.3 223 224 L 223 200.5 L 224 195.5 L 223 194.5 L 223 163.5 L 224 162.5 L 224 115.5 L 223 114.5 L 223 106.5 L 224.5 105 Z " /><path fill="rgb(93,192,231)" stroke="rgb(93,192,231)" stroke-width="1" opacity="0.9803921568627451" d="M 349 107 L 352 108.5 L 360 127.5 L 366 149.5 L 368 168.5 L 369 169.5 L 369 178.5 L 370 179.5 L 370 192.5 L 369 193.5 L 368 213.5 L 366 218.5 L 364 232.5 L 354 260.5 Q 336.5 297 307.5 322 Q 281.1 345.1 244.5 358 L 215.5 365 L 194.5 366 L 193.5 367 L 178.5 367 L 177.5 366 L 167.5 366 L 166.5 365 L 158.5 365 L 152.5 363 L 147.5 363 L 113.5 352 Q 93.4 343.1 76.5 331 Q 59.4 318.6 46 302.5 L 27 275.5 L 14 247.5 L 10 235.5 L 5 212.5 L 4 195.5 L 3 194.5 L 3 178.5 L 4 176 Q 7.8 174.5 7 177.5 L 7 179.5 L 8 205.5 L 9 206.5 L 11 224.5 L 22 257.5 Q 37.7 291.3 63.5 315 Q 79.5 330 99.5 341 L 135.5 356 L 165.5 362 L 201.5 363 L 202.5 362 L 210.5 362 L 211.5 361 L 222.5 360 L 238.5 356 L 274.5 341 L 302.5 322 L 322 302.5 Q 321.3 300.3 323.5 301 L 341 277.5 L 355 249.5 L 363 223.5 L 363 216.5 L 365 210.5 L 365 201.5 L 366 200.5 L 367 180.5 L 366 179.5 L 366 171.5 L 364 161.5 L 364 159.5 L 363 148.5 L 359 133.5 L 350 112.5 L 349 107 Z " /><path fill="rgb(93,192,231)" stroke="rgb(93,192,231)" stroke-width="1" opacity="0.9803921568627451" d="M 83 116 L 88 118.5 L 89 123.5 L 89 243.5 Q 92.8 262.8 105.5 273 Q 112.7 279.8 123.5 283 L 128.5 284 L 145.5 284 Q 162.3 279.8 172 268.5 L 180.5 254 L 186 254.5 Q 181.4 269.4 170.5 278 L 153.5 288 L 145.5 290 L 127.5 290 Q 108.7 286.3 98 274.5 Q 86.9 263.1 83 244.5 L 83 131.5 L 83 129.5 L 84 121.5 L 83 116 Z " /><path fill="rgb(93,192,231)" stroke="rgb(93,192,231)" stroke-width="1" opacity="0.9803921568627451" d="M 239.5 120 L 320 120.5 L 316.5 125 L 245.5 125 L 244 126.5 L 244 215.5 L 242.5 217 L 238 218 L 238 132.5 L 239 128.5 Q 236.5 127 238 121.5 L 239.5 120 Z " /><path fill="rgb(93,192,231)" stroke="rgb(93,192,231)" stroke-width="1" opacity="0.9803921568627451" d="M 253 134 L 309.5 134 L 311 135.5 L 308.5 139 L 298.5 140 L 294.5 139 L 293.5 140 L 259.5 140 L 258 141.5 L 258 208.5 L 256.5 210 L 252 211 L 253 206.5 L 253 134 Z " /><path fill="rgb(93,192,231)" stroke="rgb(93,192,231)" stroke-width="1" opacity="0.9803921568627451" d="M 283 186 L 290 186.5 L 284.5 190 L 283 186 Z " /><path fill="rgb(93,192,231)" stroke="rgb(93,192,231)" stroke-width="1" opacity="0.9803921568627451" d="M 303.5 186 Q 306.3 185.4 305 191.5 L 302.5 195 Q 297 196 296 192.5 L 298.5 189 Q 303 189.5 303.5 186 Z " /><path fill="rgb(93,192,231)" stroke="rgb(93,192,231)" stroke-width="1" opacity="0.9803921568627451" d="M 317.5 194 L 319 194.5 L 309.5 200 L 310.5 198 L 317.5 194 Z " /><path fill="rgb(93,192,231)" stroke="rgb(93,192,231)" stroke-width="1" opacity="0.9803921568627451" d="M 275.5 206 Q 277.8 205.3 277 207.5 Q 279.7 209.2 275.5 211 L 248 229.5 Q 250.3 230.8 247.5 232 L 227.5 241 L 213.5 245 L 207.5 245 L 200.5 247 L 184.5 247 L 166.5 243 L 156 238 L 154.5 235 L 148 230.5 L 142 220.5 L 145 222.5 Q 144.3 224.8 146.5 224 Q 152 231.5 162.5 234 L 162.5 232 L 181.5 238 L 200.5 238 L 201.5 237 L 213.5 236 L 233.5 230 L 256.5 219 L 275.5 206 Z " /><path fill="rgb(93,192,231)" stroke="rgb(93,192,231)" stroke-width="1" opacity="0.9803921568627451" d="M 260.5 223 L 262 223.5 L 257.5 226 L 257.5 225 L 260.5 223 Z " /><path fill="rgb(93,192,231)" stroke="rgb(93,192,231)" stroke-width="1" opacity="0.9803921568627451" d="M 257.5 234 L 259 236.5 L 258 240.5 L 259 242.5 L 258 244.5 L 259 247.5 L 258 252.5 L 259 257.5 Q 256.3 259.2 258 265.5 L 259 269.5 L 259 271.5 Q 259.9 279.4 254.5 281 Q 251.9 281.8 253 278.5 L 253 276.5 L 253 237.5 L 255.5 235 L 257.5 234 Z " /><path fill="rgb(93,192,231)" stroke="rgb(93,192,231)" stroke-width="1" opacity="0.9803921568627451" d="M 241.5 242 L 244 242.5 L 244 324.5 L 243 327 Q 239.2 328 238 325.5 L 238 244.5 L 239.5 243 L 241.5 242 Z " /><path fill="rgb(93,192,231)" stroke="rgb(93,192,231)" stroke-width="1" opacity="0.9803921568627451" d="M 225.5 248 L 229 248.5 L 229 280.5 L 227.5 280 L 224 277.5 L 223 275.5 L 223 249 L 225.5 248 Z " /><path fill="rgb(99,179,225)" stroke="rgb(99,179,225)" stroke-width="1" opacity="0.4588235294117647" d="M 179.5 4 L 187 4.5 L 179.5 5 L 179.5 4 Z " /><path fill="rgb(99,179,225)" stroke="rgb(99,179,225)" stroke-width="1" opacity="0.4588235294117647" d="M 190.5 4 L 194 4.5 L 190.5 5 L 190.5 4 Z " /><path fill="rgb(99,179,225)" stroke="rgb(99,179,225)" stroke-width="1" opacity="0.4588235294117647" d="M 206.5 5 L 209 5.5 L 206.5 6 L 206.5 5 Z " /><path fill="rgb(99,179,225)" stroke="rgb(99,179,225)" stroke-width="1" opacity="0.4588235294117647" d="M 182.5 9 L 191 9.5 L 182.5 10 L 182.5 9 Z " /><path fill="rgb(99,179,225)" stroke="rgb(99,179,225)" stroke-width="1" opacity="0.4588235294117647" d="M 168.5 10 L 171 10.5 L 168.5 11 L 168.5 10 Z " /><path fill="rgb(99,179,225)" stroke="rgb(99,179,225)" stroke-width="1" opacity="0.4588235294117647" d="M 202.5 10 L 207 10.5 L 202.5 11 L 202.5 10 Z " /><path fill="rgb(99,179,225)" stroke="rgb(99,179,225)" stroke-width="1" opacity="0.4588235294117647" d="M 217.5 12 L 220 12.5 L 217.5 13 L 217.5 12 Z " /><path fill="rgb(99,179,225)" stroke="rgb(99,179,225)" stroke-width="1" opacity="0.4588235294117647" d="M 93.5 29 L 95 29.5 L 92.5 31 L 93.5 29 Z " /><path fill="rgb(99,179,225)" stroke="rgb(99,179,225)" stroke-width="1" opacity="0.4588235294117647" d="M 268.5 29 L 274 32.5 L 272.5 32 Q 268.5 31.5 268.5 29 Z " /><path fill="rgb(99,179,225)" stroke="rgb(99,179,225)" stroke-width="1" opacity="0.4588235294117647" d="M 90.5 31 L 89.5 33 L 90.5 31 Z " /><path fill="rgb(99,179,225)" stroke="rgb(99,179,225)" stroke-width="1" opacity="0.4588235294117647" d="M 85.5 34 L 84.5 36 L 85.5 34 Z " /><path fill="rgb(99,179,225)" stroke="rgb(99,179,225)" stroke-width="1" opacity="0.4588235294117647" d="M 95.5 34 L 94.5 36 L 95.5 34 Z " /><path fill="rgb(99,179,225)" stroke="rgb(99,179,225)" stroke-width="1" opacity="0.4588235294117647" d="M 279.5 35 L 280.5 37 L 279.5 35 Z " /><path fill="rgb(99,179,225)" stroke="rgb(99,179,225)" stroke-width="1" opacity="0.4588235294117647" d="M 92.5 36 L 91.5 38 L 92.5 36 Z " /><path fill="rgb(99,179,225)" stroke="rgb(99,179,225)" stroke-width="1" opacity="0.4588235294117647" d="M 81.5 37 L 80.5 39 L 81.5 37 Z " /><path fill="rgb(99,179,225)" stroke="rgb(99,179,225)" stroke-width="1" opacity="0.4588235294117647" d="M 89.5 38 L 88.5 40 L 89.5 38 Z " /><path fill="rgb(99,179,225)" stroke="rgb(99,179,225)" stroke-width="1" opacity="0.4588235294117647" d="M 74.5 42 L 72.5 45 L 74.5 42 Z " /><path fill="rgb(99,179,225)" stroke="rgb(99,179,225)" stroke-width="1" opacity="0.4588235294117647" d="M 83.5 42 L 82.5 44 L 83.5 42 Z " /><path fill="rgb(99,179,225)" stroke="rgb(99,179,225)" stroke-width="1" opacity="0.4588235294117647" d="M 70.5 45 L 67.5 49 L 70.5 45 Z " /><path fill="rgb(99,179,225)" stroke="rgb(99,179,225)" stroke-width="1" opacity="0.4588235294117647" d="M 295.5 46 L 296.5 48 L 295.5 46 Z " /><path fill="rgb(99,179,225)" stroke="rgb(99,179,225)" stroke-width="1" opacity="0.4588235294117647" d="M 75.5 48 L 74.5 50 L 75.5 48 Z " /><path fill="rgb(99,179,225)" stroke="rgb(99,179,225)" stroke-width="1" opacity="0.4588235294117647" d="M 65.5 49 L 58.5 57 L 65.5 49 Z " /><path fill="rgb(99,179,225)" stroke="rgb(99,179,225)" stroke-width="1" opacity="0.4588235294117647" d="M 300.5 50 L 303.5 54 L 300.5 50 Z " /><path fill="rgb(99,179,225)" stroke="rgb(99,179,225)" stroke-width="1" opacity="0.4588235294117647" d="M 308.5 50 L 310.5 53 L 308.5 50 Z " /><path fill="rgb(99,179,225)" stroke="rgb(99,179,225)" stroke-width="1" opacity="0.4588235294117647" d="M 70.5 52 L 67.5 56 L 70.5 52 Z " /><path fill="rgb(99,179,225)" stroke="rgb(99,179,225)" stroke-width="1" opacity="0.4588235294117647" d="M 310.5 59 L 312.5 62 L 310.5 59 Z " /><path fill="rgb(99,179,225)" stroke="rgb(99,179,225)" stroke-width="1" opacity="0.4588235294117647" d="M 314.5 63 L 315.5 65 L 314.5 63 Z " /><path fill="rgb(99,179,225)" stroke="rgb(99,179,225)" stroke-width="1" opacity="0.4588235294117647" d="M 53 89 L 55 89.5 L 53 90.5 L 53 89 Z " /><path fill="rgb(99,179,225)" stroke="rgb(99,179,225)" stroke-width="1" opacity="0.4588235294117647" d="M 290.5 89 L 307 89.5 L 290.5 90 L 290.5 89 Z " /><path fill="rgb(99,179,225)" stroke="rgb(99,179,225)" stroke-width="1" opacity="0.4588235294117647" d="M 193.5 91 L 194 231 L 199.5 231 L 200 230.5 L 200 155.5 L 201 155.5 L 201 230.5 L 199.5 232 Q 193.3 232.8 193 231.5 L 193.5 91 Z " /><path fill="rgb(99,179,225)" stroke="rgb(99,179,225)" stroke-width="1" opacity="0.4588235294117647" d="M 222.5 91 L 223 97 L 335 97.5 L 223.5 98 Q 220.4 96.4 222.5 91 Z " /><path fill="rgb(99,179,225)" stroke="rgb(99,179,225)" stroke-width="1" opacity="0.4588235294117647" d="M 53.5 92 L 54 247.5 Q 60.4 283.6 84.5 302 Q 96.1 310.9 111.5 316 L 125.5 319 L 147.5 319 L 163.5 315 L 163.5 316 L 147.5 320 L 124.5 320 Q 92.6 314.4 75 294.5 Q 61.2 279.8 55 257.5 L 53 248.5 L 53 239.5 L 52 238.5 L 52 213.5 L 53 212.5 L 53 187.5 Q 50.3 185.8 52 179.5 L 53 174.5 L 52 172.5 L 53 171.5 L 53 163.5 L 52 162.5 L 52 147.5 L 53 146.5 L 53.5 92 Z " /><path fill="rgb(99,179,225)" stroke="rgb(99,179,225)" stroke-width="1" opacity="0.4588235294117647" d="M 178.5 92 L 179 229.5 L 178 229.5 L 178.5 92 Z " /><path fill="rgb(99,179,225)" stroke="rgb(99,179,225)" stroke-width="1" opacity="0.4588235294117647" d="M 207.5 93 L 208 110.5 L 207 110.5 L 207.5 93 Z " /><path fill="rgb(99,179,225)" stroke="rgb(99,179,225)" stroke-width="1" opacity="0.4588235294117647" d="M 73.5 104 L 74.5 106 L 73.5 104 Z " /><path fill="rgb(99,179,225)" stroke="rgb(99,179,225)" stroke-width="1" opacity="0.4588235294117647" d="M 223.5 104 L 330 104.5 L 223 105 L 223 224.5 L 224 225.5 L 222 224.5 L 222 105.5 L 223.5 104 Z " /><path fill="rgb(99,179,225)" stroke="rgb(99,179,225)" stroke-width="1" opacity="0.4588235294117647" d="M 60.5 107 L 61 168.5 L 60 168.5 L 60.5 107 Z " /><path fill="rgb(99,179,225)" stroke="rgb(99,179,225)" stroke-width="1" opacity="0.4588235294117647" d="M 230.5 111 L 243 111.5 L 230.5 112 L 230.5 111 Z " /><path fill="rgb(99,179,225)" stroke="rgb(99,179,225)" stroke-width="1" opacity="0.4588235294117647" d="M 67.5 115 L 68 242.5 Q 70.5 244 69 249.5 Q 75.6 277.4 95.5 292 Q 105.3 299.2 118.5 303 L 129.5 305 L 143.5 305 Q 144.8 302.7 149.5 304 L 149.5 305 L 128.5 306 Q 99.4 301.1 84 282.5 L 72 262.5 L 67 243.5 L 67.5 115 Z " /><path fill="rgb(99,179,225)" stroke="rgb(99,179,225)" stroke-width="1" opacity="0.4588235294117647" d="M 350.5 115 L 353 120.5 L 352 120.5 L 350.5 115 Z " /><path fill="rgb(99,179,225)" stroke="rgb(99,179,225)" stroke-width="1" opacity="0.4588235294117647" d="M 82.5 116 L 83 244.5 Q 87.6 265.9 101.5 278 Q 110.1 285.4 122.5 289 L 146 290.5 L 135.5 292 L 116.5 288 Q 102.4 282.6 94 271.5 Q 85.1 260.9 82 244.5 L 82.5 116 Z " /><path fill="rgb(99,179,225)" stroke="rgb(99,179,225)" stroke-width="1" opacity="0.4588235294117647" d="M 238.5 118 L 242 118.5 L 238 119 L 237.5 220 L 237 119.5 L 238.5 118 Z " /><path fill="rgb(99,179,225)" stroke="rgb(99,179,225)" stroke-width="1" opacity="0.4588235294117647" d="M 243.5 118 L 250 118.5 L 243.5 119 L 243.5 118 Z " /><path fill="rgb(99,179,225)" stroke="rgb(99,179,225)" stroke-width="1" opacity="0.4588235294117647" d="M 251.5 118 L 255 118.5 L 251.5 119 L 251.5 118 Z " /><path fill="rgb(99,179,225)" stroke="rgb(99,179,225)" stroke-width="1" opacity="0.4588235294117647" d="M 293.5 118 L 298 118.5 L 293.5 119 L 293.5 118 Z " /><path fill="rgb(99,179,225)" stroke="rgb(99,179,225)" stroke-width="1" opacity="0.4588235294117647" d="M 306.5 118 L 309 118.5 L 306.5 119 L 306.5 118 Z " /><path fill="rgb(99,179,225)" stroke="rgb(99,179,225)" stroke-width="1" opacity="0.4588235294117647" d="M 207.5 119 L 208 194.5 L 207 194.5 L 207.5 119 Z " /><path fill="rgb(99,179,225)" stroke="rgb(99,179,225)" stroke-width="1" opacity="0.4588235294117647" d="M 89.5 120 L 90 242.5 L 89 242.5 L 89.5 120 Z " /><path fill="rgb(99,179,225)" stroke="rgb(99,179,225)" stroke-width="1" opacity="0.4588235294117647" d="M 353.5 122 L 355 125.5 L 354 125.5 L 353.5 122 Z " /><path fill="rgb(99,179,225)" stroke="rgb(99,179,225)" stroke-width="1" opacity="0.4588235294117647" d="M 307.5 126 L 312 126.5 L 307.5 127 L 307.5 126 Z " /><path fill="rgb(99,179,225)" stroke="rgb(99,179,225)" stroke-width="1" opacity="0.4588235294117647" d="M 311.5 133 Q 313.8 132.3 313 134.5 L 311.5 133 Z " /><path fill="rgb(99,179,225)" stroke="rgb(99,179,225)" stroke-width="1" opacity="0.4588235294117647" d="M 358.5 136 L 359 138.5 L 358 138.5 L 358.5 136 Z " /><path fill="rgb(99,179,225)" stroke="rgb(99,179,225)" stroke-width="1" opacity="0.4588235294117647" d="M 259 140 L 309 140.5 L 260.5 141 L 259.5 142 L 259 140 Z " /><path fill="rgb(99,179,225)" stroke="rgb(99,179,225)" stroke-width="1" opacity="0.4588235294117647" d="M 360.5 143 L 361 145.5 L 360 145.5 L 360.5 143 Z " /><path fill="rgb(99,179,225)" stroke="rgb(99,179,225)" stroke-width="1" opacity="0.4588235294117647" d="M 361.5 147 L 362 149.5 L 361 149.5 L 361.5 147 Z " /><path fill="rgb(99,179,225)" stroke="rgb(99,179,225)" stroke-width="1" opacity="0.4588235294117647" d="M 362.5 152 L 363 156.5 L 362 156.5 L 362.5 152 Z " /><path fill="rgb(99,179,225)" stroke="rgb(99,179,225)" stroke-width="1" opacity="0.4588235294117647" d="M 244.5 155 L 245 212.5 L 244 212.5 L 244.5 155 Z " /><path fill="rgb(99,179,225)" stroke="rgb(99,179,225)" stroke-width="1" opacity="0.4588235294117647" d="M 363.5 158 L 364 162.5 L 363 162.5 L 363.5 158 Z " /><path fill="rgb(99,179,225)" stroke="rgb(99,179,225)" stroke-width="1" opacity="0.4588235294117647" d="M 364.5 165 L 365 171.5 L 364 171.5 L 364.5 165 Z " /><path fill="rgb(99,179,225)" stroke="rgb(99,179,225)" stroke-width="1" opacity="0.4588235294117647" d="M 251.5 171 L 252 210.5 L 251 210.5 L 251.5 171 Z " /><path fill="rgb(99,179,225)" stroke="rgb(99,179,225)" stroke-width="1" opacity="0.4588235294117647" d="M 4.5 174 L 6 174.5 L 3 176.5 L 3 194.5 L 4 195.5 L 5 212.5 L 4 212.5 L 3 195.5 L 2 194.5 L 2 176.5 L 4.5 174 Z " /><path fill="rgb(99,179,225)" stroke="rgb(99,179,225)" stroke-width="1" opacity="0.4588235294117647" d="M 7.5 175 L 9 179.5 Q 6.5 181 8 186.5 L 9 187.5 L 9 204.5 L 13 227.5 L 12 227.5 L 8 205.5 L 7 180.5 L 8 177.5 L 7.5 175 Z " /><path fill="rgb(99,179,225)" stroke="rgb(99,179,225)" stroke-width="1" opacity="0.4588235294117647" d="M 365.5 175 L 366 195.5 L 365 195.5 L 365.5 175 Z " /><path fill="rgb(99,179,225)" stroke="rgb(99,179,225)" stroke-width="1" opacity="0.4588235294117647" d="M 370.5 176 L 371 183.5 L 370 183.5 L 370.5 176 Z " /><path fill="rgb(99,179,225)" stroke="rgb(99,179,225)" stroke-width="1" opacity="0.4588235294117647" d="M 60.5 179 L 61 184.5 L 60 184.5 L 60.5 179 Z " /><path fill="rgb(99,179,225)" stroke="rgb(99,179,225)" stroke-width="1" opacity="0.4588235294117647" d="M 60.5 187 L 61 202.5 L 60 202.5 L 60.5 187 Z " /><path fill="rgb(99,179,225)" stroke="rgb(99,179,225)" stroke-width="1" opacity="0.4588235294117647" d="M 305.5 187 L 306 189.5 L 305 189.5 L 305.5 187 Z " /><path fill="rgb(99,179,225)" stroke="rgb(99,179,225)" stroke-width="1" opacity="0.4588235294117647" d="M 370.5 187 L 371 194.5 L 370 194.5 L 370.5 187 Z " /><path fill="rgb(99,179,225)" stroke="rgb(99,179,225)" stroke-width="1" opacity="0.4588235294117647" d="M 297.5 188 L 300 188.5 L 297.5 189 L 297.5 188 Z " /><path fill="rgb(99,179,225)" stroke="rgb(99,179,225)" stroke-width="1" opacity="0.4588235294117647" d="M 282.5 189 L 283.5 191 L 282.5 189 Z " /><path fill="rgb(99,179,225)" stroke="rgb(99,179,225)" stroke-width="1" opacity="0.4588235294117647" d="M 74.5 191 L 75 240.5 L 74 240.5 L 74.5 191 Z " /><path fill="rgb(99,179,225)" stroke="rgb(99,179,225)" stroke-width="1" opacity="0.4588235294117647" d="M 295.5 193 L 296.5 195 L 295.5 193 Z " /><path fill="rgb(99,179,225)" stroke="rgb(99,179,225)" stroke-width="1" opacity="0.4588235294117647" d="M 298.5 195 L 302 195.5 L 298.5 196 L 298.5 195 Z " /><path fill="rgb(99,179,225)" stroke="rgb(99,179,225)" stroke-width="1" opacity="0.4588235294117647" d="M 313.5 195 L 312.5 197 L 313.5 195 Z " /><path fill="rgb(99,179,225)" stroke="rgb(99,179,225)" stroke-width="1" opacity="0.4588235294117647" d="M 308.5 198 L 307.5 200 L 308.5 198 Z " /><path fill="rgb(99,179,225)" stroke="rgb(99,179,225)" stroke-width="1" opacity="0.4588235294117647" d="M 286.5 199 L 286 202.5 L 283.5 206 Q 279.8 205 281 208 L 283.5 207 L 282.5 209 L 278 211.5 L 278.5 213 Q 277 210.5 275.5 214 L 274 214.5 L 274.5 216 L 272.5 216 L 271 216.5 Q 273.3 217.8 270.5 219 L 268.5 218 L 267.5 221 L 265.5 220 L 264.5 223 L 262.5 222 L 259 224.5 Q 261.3 225.8 258.5 227 L 256.5 228 L 256.5 226 L 252 228.5 L 252.5 230 L 249.5 229 L 248 229.5 L 279 208.5 L 277 207.5 L 279.5 204 L 277.5 205 L 278.5 203 L 280.5 202 L 280.5 204 L 283 202.5 Q 280.8 201.3 283.5 200 L 286.5 199 Z " /><path fill="rgb(99,179,225)" stroke="rgb(99,179,225)" stroke-width="1" opacity="0.4588235294117647" d="M 364.5 200 L 365 205.5 L 364 205.5 L 364.5 200 Z " /><path fill="rgb(99,179,225)" stroke="rgb(99,179,225)" stroke-width="1" opacity="0.4588235294117647" d="M 60.5 204 L 61 210.5 L 60 210.5 L 60.5 204 Z " /><path fill="rgb(99,179,225)" stroke="rgb(99,179,225)" stroke-width="1" opacity="0.4588235294117647" d="M 298.5 204 L 299.5 206 L 298.5 204 Z " /><path fill="rgb(99,179,225)" stroke="rgb(99,179,225)" stroke-width="1" opacity="0.4588235294117647" d="M 275.5 205 L 274.5 207 L 275.5 205 Z " /><path fill="rgb(99,179,225)" stroke="rgb(99,179,225)" stroke-width="1" opacity="0.4588235294117647" d="M 363.5 208 L 364 213.5 L 362.5 220 L 362 214.5 L 363.5 208 Z " /><path fill="rgb(99,179,225)" stroke="rgb(99,179,225)" stroke-width="1" opacity="0.4588235294117647" d="M 60.5 212 L 61 247.5 L 63 256.5 L 62 256.5 L 60 247.5 L 60.5 212 Z " /><path fill="rgb(99,179,225)" stroke="rgb(99,179,225)" stroke-width="1" opacity="0.4588235294117647" d="M 5.5 214 L 10 235.5 L 22 266.5 Q 36.9 295.6 59.5 317 Q 85.8 342.2 123.5 356 L 135.5 360 L 158.5 365 L 174.5 366 L 175.5 367 L 198.5 367 L 199.5 366 L 221.5 364 L 237.5 360 L 237.5 361 L 207.5 367 L 174.5 368 L 173.5 367 L 157.5 366 L 142.5 363 L 106.5 350 Q 73.3 334.2 50 308.5 Q 31.5 288.5 19 262.5 L 7 228.5 L 5.5 214 Z " /><path fill="rgb(99,179,225)" stroke="rgb(99,179,225)" stroke-width="1" opacity="0.4588235294117647" d="M 208.5 214 L 209 218.5 L 208 218.5 L 208.5 214 Z " /><path fill="rgb(99,179,225)" stroke="rgb(99,179,225)" stroke-width="1" opacity="0.4588235294117647" d="M 261.5 214 L 260.5 216 L 258.5 217 L 259.5 215 L 261.5 214 Z " /><path fill="rgb(99,179,225)" stroke="rgb(99,179,225)" stroke-width="1" opacity="0.4588235294117647" d="M 140.5 216 L 147.5 224 L 149 223.5 L 148 221.5 L 151 223.5 L 153.5 227 L 155 226.5 Q 152.8 227.8 155.5 229 L 157 228.5 L 156.5 227 L 158.5 231 L 160 230.5 L 159.5 229 L 160.5 232 L 163 233.5 L 160.5 234 Q 149.5 229 142.5 220 L 141 220.5 L 142 218.5 L 140 218.5 L 140.5 216 Z " /><path fill="rgb(99,179,225)" stroke="rgb(99,179,225)" stroke-width="1" opacity="0.4588235294117647" d="M 254.5 218 L 253.5 220 L 251.5 221 L 252.5 219 L 254.5 218 Z " /><path fill="rgb(99,179,225)" stroke="rgb(99,179,225)" stroke-width="1" opacity="0.4588235294117647" d="M 248.5 221 L 250 221.5 L 240.5 226 L 240.5 225 L 248.5 221 Z " /><path fill="rgb(99,179,225)" stroke="rgb(99,179,225)" stroke-width="1" opacity="0.4588235294117647" d="M 361.5 221 L 362 224.5 L 361 224.5 L 361.5 221 Z " /><path fill="rgb(99,179,225)" stroke="rgb(99,179,225)" stroke-width="1" opacity="0.4588235294117647" d="M 208.5 222 L 209 224.5 L 208 224.5 L 208.5 222 Z " /><path fill="rgb(99,179,225)" stroke="rgb(99,179,225)" stroke-width="1" opacity="0.4588235294117647" d="M 143.5 224 L 146 227.5 L 144 226.5 L 143.5 224 Z " /><path fill="rgb(99,179,225)" stroke="rgb(99,179,225)" stroke-width="1" opacity="0.4588235294117647" d="M 360.5 226 L 361 228.5 L 360 228.5 L 360.5 226 Z " /><path fill="rgb(99,179,225)" stroke="rgb(99,179,225)" stroke-width="1" opacity="0.4588235294117647" d="M 232.5 228 L 234 228.5 L 227.5 231 L 227.5 230 L 232.5 228 Z " /><path fill="rgb(99,179,225)" stroke="rgb(99,179,225)" stroke-width="1" opacity="0.4588235294117647" d="M 13.5 229 L 21 251.5 L 20 251.5 L 14 235.5 L 13.5 229 Z " /><path fill="rgb(99,179,225)" stroke="rgb(99,179,225)" stroke-width="1" opacity="0.4588235294117647" d="M 208.5 229 L 212 229.5 L 208.5 230 L 208.5 229 Z " /><path fill="rgb(99,179,225)" stroke="rgb(99,179,225)" stroke-width="1" opacity="0.4588235294117647" d="M 359.5 230 L 360 232.5 Q 354.4 254.4 343.5 271 L 344 269.5 Q 354 252 359.5 230 Z " /><path fill="rgb(99,179,225)" stroke="rgb(99,179,225)" stroke-width="1" opacity="0.4588235294117647" d="M 163.5 231 L 166 232.5 L 164.5 233 L 163.5 231 Z " /><path fill="rgb(99,179,225)" stroke="rgb(99,179,225)" stroke-width="1" opacity="0.4588235294117647" d="M 180.5 231 L 186 231.5 L 180.5 232 L 180.5 231 Z " /><path fill="rgb(99,179,225)" stroke="rgb(99,179,225)" stroke-width="1" opacity="0.4588235294117647" d="M 248.5 231 L 247.5 233 L 244.5 234 L 244.5 233 L 248.5 231 Z " /><path fill="rgb(99,179,225)" stroke="rgb(99,179,225)" stroke-width="1" opacity="0.4588235294117647" d="M 151.5 233 L 155 235 L 156.5 238 L 159 239.5 L 157.5 239 L 151.5 233 Z " /><path fill="rgb(99,179,225)" stroke="rgb(99,179,225)" stroke-width="1" opacity="0.4588235294117647" d="M 216.5 233 L 219 233.5 L 206.5 237 L 199.5 237 L 199.5 236 L 206.5 236 L 216.5 233 Z " /><path fill="rgb(99,179,225)" stroke="rgb(99,179,225)" stroke-width="1" opacity="0.4588235294117647" d="M 257.5 233 L 259 233.5 L 252.5 237 L 253.5 235 L 257.5 233 Z " /><path fill="rgb(99,179,225)" stroke="rgb(99,179,225)" stroke-width="1" opacity="0.4588235294117647" d="M 242.5 234 L 241.5 236 L 240 235.5 L 242.5 234 Z " /><path fill="rgb(99,179,225)" stroke="rgb(99,179,225)" stroke-width="1" opacity="0.4588235294117647" d="M 173.5 235 L 183.5 237 L 185.5 237 Q 194.4 238.3 198 236 L 197.5 238 L 183.5 238 L 173.5 236 L 173.5 235 Z " /><path fill="rgb(99,179,225)" stroke="rgb(99,179,225)" stroke-width="1" opacity="0.4588235294117647" d="M 243.5 240 L 245 241.5 L 245 325.5 L 244 328 L 238.5 328 L 238 326.5 L 237 325.5 L 237 243.5 L 241.5 241 L 241.5 242 L 238 243 L 238 325.5 L 239.5 327 Q 243.3 327.8 244 325.5 L 244 241.5 L 243.5 240 Z " /><path fill="rgb(99,179,225)" stroke="rgb(99,179,225)" stroke-width="1" opacity="0.4588235294117647" d="M 164.5 242 Q 172.1 245.9 183 246.5 L 177.5 247 L 166.5 244 L 164.5 242 Z " /><path fill="rgb(99,179,225)" stroke="rgb(99,179,225)" stroke-width="1" opacity="0.4588235294117647" d="M 218.5 243 L 221 243.5 L 218.5 244 L 218.5 243 Z " /><path fill="rgb(99,179,225)" stroke="rgb(99,179,225)" stroke-width="1" opacity="0.4588235294117647" d="M 90.5 244 L 93 254.5 L 103 270 L 112.5 277 L 121.5 281 L 129.5 283 L 143.5 283 Q 162.1 279.1 172 266.5 L 178.5 255 L 179 256.5 Q 173.8 268.8 163.5 276 Q 155.7 281.7 144.5 284 L 128.5 284 Q 110.1 279.9 100 267.5 L 92 254.5 L 90 248.5 L 90.5 244 Z " /><path fill="rgb(99,179,225)" stroke="rgb(99,179,225)" stroke-width="1" opacity="0.4588235294117647" d="M 214.5 244 L 217 244.5 L 214.5 245 L 214.5 244 Z " /><path fill="rgb(99,179,225)" stroke="rgb(99,179,225)" stroke-width="1" opacity="0.4588235294117647" d="M 75.5 245 L 76 247.5 L 75 247.5 L 75.5 245 Z " /><path fill="rgb(99,179,225)" stroke="rgb(99,179,225)" stroke-width="1" opacity="0.4588235294117647" d="M 209.5 245 L 213 245.5 L 209.5 246 L 209.5 245 Z " /><path fill="rgb(99,179,225)" stroke="rgb(99,179,225)" stroke-width="1" opacity="0.4588235294117647" d="M 202.5 246 L 208 246.5 L 202.5 247 L 202.5 246 Z " /><path fill="rgb(99,179,225)" stroke="rgb(99,179,225)" stroke-width="1" opacity="0.4588235294117647" d="M 184.5 247 L 201 247.5 L 184.5 248 L 184.5 247 Z " /><path fill="rgb(99,179,225)" stroke="rgb(99,179,225)" stroke-width="1" opacity="0.4588235294117647" d="M 224.5 247 L 227 247.5 L 223 249.5 L 223 276.5 L 226 279.5 L 222 276.5 L 222 249.5 L 224.5 247 Z " /><path fill="rgb(99,179,225)" stroke="rgb(99,179,225)" stroke-width="1" opacity="0.4588235294117647" d="M 76.5 249 Q 81.1 270.9 95.5 283 Q 104.4 290.6 116.5 295 L 124.5 297 L 140.5 298 Q 142 295.5 147.5 297 L 147.5 298 L 131.5 299 Q 129.8 296.2 123.5 298 L 111.5 294 Q 98.8 288.2 90 278.5 Q 78.5 267.3 76.5 249 Z " /><path fill="rgb(99,179,225)" stroke="rgb(99,179,225)" stroke-width="1" opacity="0.4588235294117647" d="M 214.5 250 L 217 251.5 L 216.5 253 L 216 251 L 214.5 250 Z " /><path fill="rgb(99,179,225)" stroke="rgb(99,179,225)" stroke-width="1" opacity="0.4588235294117647" d="M 209 251 L 212 251.5 L 210 252 L 209.5 254 L 209 251 Z " /><path fill="rgb(99,179,225)" stroke="rgb(99,179,225)" stroke-width="1" opacity="0.4588235294117647" d="M 180.5 252 L 183 252.5 L 179.5 254 L 180.5 252 Z " /><path fill="rgb(99,179,225)" stroke="rgb(99,179,225)" stroke-width="1" opacity="0.4588235294117647" d="M 197.5 252 L 199 252.5 L 196.5 254 L 197.5 252 Z " /><path fill="rgb(99,179,225)" stroke="rgb(99,179,225)" stroke-width="1" opacity="0.4588235294117647" d="M 21.5 253 L 23 256.5 L 22 256.5 L 21.5 253 Z " /><path fill="rgb(99,179,225)" stroke="rgb(99,179,225)" stroke-width="1" opacity="0.4588235294117647" d="M 194.5 253 L 195 254.5 Q 189.3 274.8 174.5 286 Q 165 294.5 149.5 297 L 149.5 296 Q 170.6 291.6 182 277.5 Q 190.8 267.8 194.5 253 Z " /><path fill="rgb(99,179,225)" stroke="rgb(99,179,225)" stroke-width="1" opacity="0.4588235294117647" d="M 229.5 254 L 230 282 L 227 280.5 L 229 280.5 L 229.5 254 Z " /><path fill="rgb(99,179,225)" stroke="rgb(99,179,225)" stroke-width="1" opacity="0.4588235294117647" d="M 251.5 254 L 252 266.5 L 251 266.5 L 251.5 254 Z " /><path fill="rgb(99,179,225)" stroke="rgb(99,179,225)" stroke-width="1" opacity="0.4588235294117647" d="M 208.5 255 L 209 258.5 L 207.5 262 L 207 259.5 L 208.5 255 Z " /><path fill="rgb(99,179,225)" stroke="rgb(99,179,225)" stroke-width="1" opacity="0.4588235294117647" d="M 215.5 255 L 216 257.5 L 215 257.5 L 215.5 255 Z " /><path fill="rgb(99,179,225)" stroke="rgb(99,179,225)" stroke-width="1" opacity="0.4588235294117647" d="M 184.5 259 L 185 260.5 L 183 261.5 L 184.5 259 Z " /><path fill="rgb(99,179,225)" stroke="rgb(99,179,225)" stroke-width="1" opacity="0.4588235294117647" d="M 206.5 263 L 207 264.5 L 199.5 279 L 200 277.5 L 206.5 263 Z " /><path fill="rgb(99,179,225)" stroke="rgb(99,179,225)" stroke-width="1" opacity="0.4588235294117647" d="M 65.5 264 Q 73 284.5 89 296.5 L 74 282.5 L 66 268.5 L 65.5 264 Z " /><path fill="rgb(99,179,225)" stroke="rgb(99,179,225)" stroke-width="1" opacity="0.4588235294117647" d="M 27.5 266 L 37 281.5 L 35 280.5 L 27.5 266 Z " /><path fill="rgb(99,179,225)" stroke="rgb(99,179,225)" stroke-width="1" opacity="0.4588235294117647" d="M 180.5 267 L 179 269.5 L 170.5 279 L 178 270.5 L 180.5 267 Z " /><path fill="rgb(99,179,225)" stroke="rgb(99,179,225)" stroke-width="1" opacity="0.4588235294117647" d="M 259.5 269 L 260 275.5 L 259 275.5 L 259.5 269 Z " /><path fill="rgb(99,179,225)" stroke="rgb(99,179,225)" stroke-width="1" opacity="0.4588235294117647" d="M 342.5 272 L 342 273.5 L 337.5 281 L 338 279.5 L 342.5 272 Z " /><path fill="rgb(99,179,225)" stroke="rgb(99,179,225)" stroke-width="1" opacity="0.4588235294117647" d="M 192.5 275 L 191.5 277 L 192.5 275 Z " /><path fill="rgb(99,179,225)" stroke="rgb(99,179,225)" stroke-width="1" opacity="0.4588235294117647" d="M 190.5 278 L 189.5 280 L 190.5 278 Z " /><path fill="rgb(99,179,225)" stroke="rgb(99,179,225)" stroke-width="1" opacity="0.4588235294117647" d="M 168.5 279 L 166.5 282 L 168.5 279 Z " /><path fill="rgb(99,179,225)" stroke="rgb(99,179,225)" stroke-width="1" opacity="0.4588235294117647" d="M 252.5 279 L 254 281.5 L 252 282 L 252.5 279 Z " /><path fill="rgb(99,179,225)" stroke="rgb(99,179,225)" stroke-width="1" opacity="0.4588235294117647" d="M 256.5 279 L 255.5 281 L 256.5 279 Z " /><path fill="rgb(99,179,225)" stroke="rgb(99,179,225)" stroke-width="1" opacity="0.4588235294117647" d="M 198.5 280 L 197 282.5 Q 193.3 291.3 185.5 296 Q 174.2 306.2 157.5 311 L 147.5 313 L 126.5 313 L 115.5 311 L 104.5 307 L 90 297.5 L 92.5 299 Q 102.5 306.5 116.5 310 L 126.5 312 L 145.5 312 L 156.5 310 L 175.5 302 L 193 287.5 L 198.5 280 Z " /><path fill="rgb(99,179,225)" stroke="rgb(99,179,225)" stroke-width="1" opacity="0.4588235294117647" d="M 164.5 282 L 163.5 284 L 161.5 285 L 162.5 283 L 164.5 282 Z " /><path fill="rgb(99,179,225)" stroke="rgb(99,179,225)" stroke-width="1" opacity="0.4588235294117647" d="M 187.5 282 L 180.5 290 L 187.5 282 Z " /><path fill="rgb(99,179,225)" stroke="rgb(99,179,225)" stroke-width="1" opacity="0.4588235294117647" d="M 336.5 282 L 335 284.5 Q 324.4 301.9 309.5 315 Q 295.3 329.3 276.5 339 L 277.5 337 L 301.5 321 L 315.5 307 L 317 307 L 336.5 282 Z " /><path fill="rgb(99,179,225)" stroke="rgb(99,179,225)" stroke-width="1" opacity="0.4588235294117647" d="M 342.5 282 L 341.5 284 L 342.5 282 Z " /><path fill="rgb(99,179,225)" stroke="rgb(99,179,225)" stroke-width="1" opacity="0.4588235294117647" d="M 37.5 283 L 41 287.5 L 39 286.5 L 37.5 283 Z " /><path fill="rgb(99,179,225)" stroke="rgb(99,179,225)" stroke-width="1" opacity="0.4588235294117647" d="M 156.5 286 L 158 286.5 L 151.5 289 L 151.5 288 L 156.5 286 Z " /><path fill="rgb(99,179,225)" stroke="rgb(99,179,225)" stroke-width="1" opacity="0.4588235294117647" d="M 201.5 288 L 200.5 290 L 201.5 288 Z " /><path fill="rgb(99,179,225)" stroke="rgb(99,179,225)" stroke-width="1" opacity="0.4588235294117647" d="M 147.5 289 L 150 289.5 L 147.5 290 L 147.5 289 Z " /><path fill="rgb(99,179,225)" stroke="rgb(99,179,225)" stroke-width="1" opacity="0.4588235294117647" d="M 42.5 290 L 44.5 293 L 42.5 290 Z " /><path fill="rgb(99,179,225)" stroke="rgb(99,179,225)" stroke-width="1" opacity="0.4588235294117647" d="M 178.5 290 L 176.5 293 L 173.5 295 L 175.5 292 L 178.5 290 Z " /><path fill="rgb(99,179,225)" stroke="rgb(99,179,225)" stroke-width="1" opacity="0.4588235294117647" d="M 45.5 294 L 60 310.5 L 54 305.5 L 45.5 294 Z " /><path fill="rgb(99,179,225)" stroke="rgb(99,179,225)" stroke-width="1" opacity="0.4588235294117647" d="M 171.5 295 L 170.5 297 L 161.5 301 L 161.5 300 L 171.5 295 Z " /><path fill="rgb(99,179,225)" stroke="rgb(99,179,225)" stroke-width="1" opacity="0.4588235294117647" d="M 194.5 296 L 192.5 299 L 194.5 296 Z " /><path fill="rgb(99,179,225)" stroke="rgb(99,179,225)" stroke-width="1" opacity="0.4588235294117647" d="M 332.5 296 L 331.5 298 L 332.5 296 Z " /><path fill="rgb(99,179,225)" stroke="rgb(99,179,225)" stroke-width="1" opacity="0.4588235294117647" d="M 189.5 300 L 186.5 304 L 189.5 300 Z " /><path fill="rgb(99,179,225)" stroke="rgb(99,179,225)" stroke-width="1" opacity="0.4588235294117647" d="M 328.5 301 L 326.5 304 L 328.5 301 Z " /><path fill="rgb(99,179,225)" stroke="rgb(99,179,225)" stroke-width="1" opacity="0.4588235294117647" d="M 151.5 303 L 154 303.5 L 151.5 304 L 151.5 303 Z " /><path fill="rgb(99,179,225)" stroke="rgb(99,179,225)" stroke-width="1" opacity="0.4588235294117647" d="M 184.5 304 L 183.5 306 L 184.5 304 Z " /><path fill="rgb(99,179,225)" stroke="rgb(99,179,225)" stroke-width="1" opacity="0.4588235294117647" d="M 181.5 306 L 180.5 308 L 181.5 306 Z " /><path fill="rgb(99,179,225)" stroke="rgb(99,179,225)" stroke-width="1" opacity="0.4588235294117647" d="M 178.5 308 L 177.5 310 L 168.5 314 L 168.5 313 L 178.5 308 Z " /><path fill="rgb(99,179,225)" stroke="rgb(99,179,225)" stroke-width="1" opacity="0.4588235294117647" d="M 63.5 313 L 70.5 321 L 63.5 313 Z " /><path fill="rgb(99,179,225)" stroke="rgb(99,179,225)" stroke-width="1" opacity="0.4588235294117647" d="M 73.5 322 L 80 327.5 L 77.5 326 L 73.5 322 Z " /><path fill="rgb(99,179,225)" stroke="rgb(99,179,225)" stroke-width="1" opacity="0.4588235294117647" d="M 307.5 322 L 305.5 325 L 307.5 322 Z " /><path fill="rgb(99,179,225)" stroke="rgb(99,179,225)" stroke-width="1" opacity="0.4588235294117647" d="M 302.5 326 L 301.5 328 L 302.5 326 Z " /><path fill="rgb(99,179,225)" stroke="rgb(99,179,225)" stroke-width="1" opacity="0.4588235294117647" d="M 81.5 328 L 94 336.5 L 92.5 336 L 83.5 331 L 81.5 328 Z " /><path fill="rgb(99,179,225)" stroke="rgb(99,179,225)" stroke-width="1" opacity="0.4588235294117647" d="M 297.5 330 L 296.5 332 L 297.5 330 Z " /><path fill="rgb(99,179,225)" stroke="rgb(99,179,225)" stroke-width="1" opacity="0.4588235294117647" d="M 294.5 332 L 293.5 334 L 294.5 332 Z " /><path fill="rgb(99,179,225)" stroke="rgb(99,179,225)" stroke-width="1" opacity="0.4588235294117647" d="M 290.5 335 L 289.5 337 L 287.5 338 L 288.5 336 L 290.5 335 Z " /><path fill="rgb(99,179,225)" stroke="rgb(99,179,225)" stroke-width="1" opacity="0.4588235294117647" d="M 95.5 337 L 101 340.5 L 99.5 340 Q 95.5 339.5 95.5 337 Z " /><path fill="rgb(99,179,225)" stroke="rgb(99,179,225)" stroke-width="1" opacity="0.4588235294117647" d="M 285.5 338 L 284.5 340 L 285.5 338 Z " /><path fill="rgb(99,179,225)" stroke="rgb(99,179,225)" stroke-width="1" opacity="0.4588235294117647" d="M 273.5 339 L 275 339.5 L 252.5 351 L 225.5 359 L 208.5 362 L 198.5 362 L 197.5 363 L 177.5 363 L 176.5 362 L 159.5 361 L 140.5 357 L 121.5 351 L 104 342.5 L 105.5 342 L 124.5 351 L 148.5 358 L 167.5 360 L 168.5 361 L 184.5 361 L 189.5 362 L 192.5 361 L 207.5 361 L 237.5 355 L 261.5 346 L 273.5 339 Z " /><path fill="rgb(99,179,225)" stroke="rgb(99,179,225)" stroke-width="1" opacity="0.4588235294117647" d="M 282.5 340 L 281.5 342 L 282.5 340 Z " /><path fill="rgb(99,179,225)" stroke="rgb(99,179,225)" stroke-width="1" opacity="0.4588235294117647" d="M 275.5 344 L 274.5 346 L 272.5 347 L 273.5 345 L 275.5 344 Z " /><path fill="rgb(99,179,225)" stroke="rgb(99,179,225)" stroke-width="1" opacity="0.4588235294117647" d="M 267.5 348 L 269 348.5 L 261.5 352 L 261.5 351 L 267.5 348 Z " /><path fill="rgb(99,179,225)" stroke="rgb(99,179,225)" stroke-width="1" opacity="0.4588235294117647" d="M 258.5 352 L 260 352.5 L 251.5 356 L 251.5 355 L 258.5 352 Z " /><path fill="rgb(99,179,225)" stroke="rgb(99,179,225)" stroke-width="1" opacity="0.4588235294117647" d="M 248.5 356 L 250 356.5 L 242.5 359 L 242.5 358 L 248.5 356 Z " /><path fill="rgb(182,225,242)" stroke="rgb(182,225,242)" stroke-width="1" opacity="0.08627450980392157" d="M 184.5 3 L 189 3.5 L 184.5 4 L 184.5 3 Z " /><path fill="rgb(182,225,242)" stroke="rgb(182,225,242)" stroke-width="1" opacity="0.08627450980392157" d="M 169.5 4 L 179 4.5 L 169.5 5 L 169.5 4 Z " /><path fill="rgb(182,225,242)" stroke="rgb(182,225,242)" stroke-width="1" opacity="0.08627450980392157" d="M 194.5 4 L 205 4.5 L 194.5 5 L 194.5 4 Z " /><path fill="rgb(182,225,242)" stroke="rgb(182,225,242)" stroke-width="1" opacity="0.08627450980392157" d="M 161.5 5 L 166 5.5 L 161.5 6 L 161.5 5 Z " /><path fill="rgb(182,225,242)" stroke="rgb(182,225,242)" stroke-width="1" opacity="0.08627450980392157" d="M 209.5 5 L 213 5.5 L 209.5 6 L 209.5 5 Z " /><path fill="rgb(182,225,242)" stroke="rgb(182,225,242)" stroke-width="1" opacity="0.08627450980392157" d="M 154.5 6 L 160 6.5 L 154.5 7 L 154.5 6 Z " /><path fill="rgb(182,225,242)" stroke="rgb(182,225,242)" stroke-width="1" opacity="0.08627450980392157" d="M 214.5 6 L 219 6.5 L 214.5 7 L 214.5 6 Z " /><path fill="rgb(182,225,242)" stroke="rgb(182,225,242)" stroke-width="1" opacity="0.08627450980392157" d="M 149.5 7 L 153 7.5 L 145.5 9 L 145.5 8 L 149.5 7 Z " /><path fill="rgb(182,225,242)" stroke="rgb(182,225,242)" stroke-width="1" opacity="0.08627450980392157" d="M 221.5 7 L 224 7.5 L 221.5 8 L 221.5 7 Z " /><path fill="rgb(182,225,242)" stroke="rgb(182,225,242)" stroke-width="1" opacity="0.08627450980392157" d="M 225.5 8 L 229 8.5 L 225.5 9 L 225.5 8 Z " /><path fill="rgb(182,225,242)" stroke="rgb(182,225,242)" stroke-width="1" opacity="0.08627450980392157" d="M 141.5 9 L 144 9.5 L 141.5 10 L 141.5 9 Z " /><path fill="rgb(182,225,242)" stroke="rgb(182,225,242)" stroke-width="1" opacity="0.08627450980392157" d="M 230.5 9 L 236 10.5 L 233.5 11 L 230.5 10 L 230.5 9 Z " /><path fill="rgb(182,225,242)" stroke="rgb(182,225,242)" stroke-width="1" opacity="0.08627450980392157" d="M 137.5 10 L 140 10.5 L 137.5 11 L 137.5 10 Z " /><path fill="rgb(182,225,242)" stroke="rgb(182,225,242)" stroke-width="1" opacity="0.08627450980392157" d="M 171.5 10 L 201.5 10 L 202.5 11 L 212.5 11 L 244.5 19 L 259.5 25 L 285.5 39 Q 302.1 50.4 315.5 65 L 318.5 65 L 320 61.5 Q 295.5 35 260 19.5 L 261.5 19 Q 296.8 34.7 321 61.5 Q 321.8 65.3 319.5 66 L 314.5 66 Q 299.7 48.8 279.5 37 L 246.5 21 L 215.5 13 L 208.5 13 L 200.5 11 L 173.5 11 L 139.5 17 L 114.5 26 Q 95.9 34.4 80.5 46 L 57.5 67 L 55.5 67 L 52 64.5 L 52 61.5 L 56.5 56 L 69.5 45 L 66.5 49 L 54 60.5 L 53 62.5 L 54 65 L 57.5 65 L 85.5 41 L 113.5 25 L 134.5 17 L 138.5 17 L 150.5 13 L 155.5 13 L 161.5 11 L 170.5 11 L 171.5 10 Z " /><path fill="rgb(182,225,242)" stroke="rgb(182,225,242)" stroke-width="1" opacity="0.08627450980392157" d="M 133.5 11 L 136 11.5 L 130.5 13 L 130.5 12 L 133.5 11 Z " /><path fill="rgb(182,225,242)" stroke="rgb(182,225,242)" stroke-width="1" opacity="0.08627450980392157" d="M 238.5 11 L 243 12.5 L 240.5 13 L 238.5 11 Z " /><path fill="rgb(182,225,242)" stroke="rgb(182,225,242)" stroke-width="1" opacity="0.08627450980392157" d="M 127.5 13 L 129 13.5 L 124.5 15 L 124.5 14 L 127.5 13 Z " /><path fill="rgb(182,225,242)" stroke="rgb(182,225,242)" stroke-width="1" opacity="0.08627450980392157" d="M 250.5 15 L 254 16.5 L 252.5 17 L 250.5 15 Z " /><path fill="rgb(182,225,242)" stroke="rgb(182,225,242)" stroke-width="1" opacity="0.08627450980392157" d="M 116.5 17 L 118 17.5 L 94.5 29 L 94.5 28 L 116.5 17 Z " /><path fill="rgb(182,225,242)" stroke="rgb(182,225,242)" stroke-width="1" opacity="0.08627450980392157" d="M 255.5 17 L 259 18.5 L 257.5 19 L 255.5 17 Z " /><path fill="rgb(182,225,242)" stroke="rgb(182,225,242)" stroke-width="1" opacity="0.08627450980392157" d="M 92.5 29 L 91.5 31 L 86.5 34 L 87.5 32 L 92.5 29 Z " /><path fill="rgb(182,225,242)" stroke="rgb(182,225,242)" stroke-width="1" opacity="0.08627450980392157" d="M 84.5 34 L 82.5 37 L 71.5 45 L 74.5 41 L 84.5 34 Z " /><path fill="rgb(182,225,242)" stroke="rgb(182,225,242)" stroke-width="1" opacity="0.08627450980392157" d="M 53.5 88 L 58 91.5 L 54.5 89 L 53 89.5 L 53 146.5 L 52 146.5 L 52 89.5 L 53.5 88 Z " /><path fill="rgb(182,225,242)" stroke="rgb(182,225,242)" stroke-width="1" opacity="0.08627450980392157" d="M 193.5 89 L 195 89.5 L 193 91.5 L 193 232 Q 199.6 233.8 201.5 230 L 201 231.5 L 200.5 233 L 193.5 233 L 192 231.5 L 192 90.5 L 193.5 89 Z " /><path fill="rgb(182,225,242)" stroke="rgb(182,225,242)" stroke-width="1" opacity="0.08627450980392157" d="M 222.5 89 L 223 90.5 L 221 91.5 L 222.5 89 Z " /><path fill="rgb(182,225,242)" stroke="rgb(182,225,242)" stroke-width="1" opacity="0.08627450980392157" d="M 224.5 89 L 290 89.5 L 224.5 90 L 224.5 89 Z " /><path fill="rgb(182,225,242)" stroke="rgb(182,225,242)" stroke-width="1" opacity="0.08627450980392157" d="M 307.5 89 L 310 89.5 L 307.5 90 L 307.5 89 Z " /><path fill="rgb(182,225,242)" stroke="rgb(182,225,242)" stroke-width="1" opacity="0.08627450980392157" d="M 312.5 89 L 315 89.5 L 312.5 90 L 312.5 89 Z " /><path fill="rgb(182,225,242)" stroke="rgb(182,225,242)" stroke-width="1" opacity="0.08627450980392157" d="M 316.5 89 L 319 89.5 L 316.5 90 L 316.5 89 Z " /><path fill="rgb(182,225,242)" stroke="rgb(182,225,242)" stroke-width="1" opacity="0.08627450980392157" d="M 178.5 90 L 179 91.5 L 178 92.5 L 178 229.5 Q 179.7 233.5 186 232 L 186.5 90 L 187 231.5 Q 185.8 234.3 180.5 233 L 178 232 L 177 229.5 L 177 91.5 L 178.5 90 Z " /><path fill="rgb(182,225,242)" stroke="rgb(182,225,242)" stroke-width="1" opacity="0.08627450980392157" d="M 201.5 90 L 202 227.5 L 201 227.5 L 201.5 90 Z " /><path fill="rgb(182,225,242)" stroke="rgb(182,225,242)" stroke-width="1" opacity="0.08627450980392157" d="M 207.5 90 L 208 92.5 L 207 92.5 L 207.5 90 Z " /><path fill="rgb(182,225,242)" stroke="rgb(182,225,242)" stroke-width="1" opacity="0.08627450980392157" d="M 215.5 90 L 216 230 L 207 231 L 207.5 195 L 208 230 L 215 229 L 215.5 90 Z " /><path fill="rgb(182,225,242)" stroke="rgb(182,225,242)" stroke-width="1" opacity="0.08627450980392157" d="M 339.5 90 Q 341.8 89.3 341 91.5 L 335.5 99 L 222.5 99 L 222 97.5 L 221 93.5 L 222 93.5 Q 221.3 97.3 223.5 98 L 334.5 98 L 337 95.5 L 340 91.5 L 339.5 90 Z " /><path fill="rgb(182,225,242)" stroke="rgb(182,225,242)" stroke-width="1" opacity="0.08627450980392157" d="M 59.5 92 L 61.5 95 L 59.5 92 Z " /><path fill="rgb(182,225,242)" stroke="rgb(182,225,242)" stroke-width="1" opacity="0.08627450980392157" d="M 206.5 94 L 208 118.5 L 207 119.5 L 206.5 193 L 206.5 94 Z " /><path fill="rgb(182,225,242)" stroke="rgb(182,225,242)" stroke-width="1" opacity="0.08627450980392157" d="M 67 100 Q 71.7 99.3 73 103.5 L 69.5 101 L 68 101.5 L 68 114.5 L 67 114.5 L 67 100 Z " /><path fill="rgb(182,225,242)" stroke="rgb(182,225,242)" stroke-width="1" opacity="0.08627450980392157" d="M 74.5 104 L 76 105.5 L 76 244.5 L 77 248.5 L 76 248.5 L 75 244.5 L 75 105.5 L 74.5 104 Z " /><path fill="rgb(182,225,242)" stroke="rgb(182,225,242)" stroke-width="1" opacity="0.08627450980392157" d="M 222.5 104 L 222 105.5 L 222 224.5 L 223.5 226 L 230 224 L 230 112 L 326.5 112 L 327 110.5 L 330.5 104 L 331 106.5 L 326.5 113 L 231 113 L 231 223.5 Q 227.8 227 222 227 L 221 224.5 L 221 105.5 L 222.5 104 Z " /><path fill="rgb(182,225,242)" stroke="rgb(182,225,242)" stroke-width="1" opacity="0.08627450980392157" d="M 347.5 105 L 349 105.5 L 347 108.5 L 358 135.5 L 362 150.5 L 363 161.5 L 362 161.5 L 361 150.5 L 357 135.5 L 346 109.5 L 346 106.5 L 347.5 105 Z " /><path fill="rgb(182,225,242)" stroke="rgb(182,225,242)" stroke-width="1" opacity="0.08627450980392157" d="M 351.5 105 Q 353.8 104.3 353 106.5 Q 369.1 133.9 371 175.5 L 370 175.5 Q 367.7 132.3 351.5 105 Z " /><path fill="rgb(182,225,242)" stroke="rgb(182,225,242)" stroke-width="1" opacity="0.08627450980392157" d="M 81 113 L 84 113.5 L 82 114 L 82 244.5 Q 86.4 267.2 101.5 279 Q 113.3 290.2 135 291.5 L 127.5 292 Q 103.9 287.1 92 270.5 Q 84 260 81 244.5 L 81 113 Z " /><path fill="rgb(182,225,242)" stroke="rgb(182,225,242)" stroke-width="1" opacity="0.08627450980392157" d="M 85.5 114 L 87.5 117 L 85.5 114 Z " /><path fill="rgb(182,225,242)" stroke="rgb(182,225,242)" stroke-width="1" opacity="0.08627450980392157" d="M 66.5 116 L 67 122.5 L 66 122.5 L 66.5 116 Z " /><path fill="rgb(182,225,242)" stroke="rgb(182,225,242)" stroke-width="1" opacity="0.08627450980392157" d="M 89.5 117 L 91 119.5 L 91 243.5 L 90 243.5 L 90 119.5 L 89.5 117 Z " /><path fill="rgb(182,225,242)" stroke="rgb(182,225,242)" stroke-width="1" opacity="0.08627450980392157" d="M 237.5 118 L 237 119.5 L 237 219.5 L 239.5 220 L 244 218 L 245.5 214 L 246 215.5 L 243.5 219 L 237.5 221 L 236 219.5 L 236 119.5 L 237.5 118 Z " /><path fill="rgb(182,225,242)" stroke="rgb(182,225,242)" stroke-width="1" opacity="0.08627450980392157" d="M 258.5 118 L 264 118.5 L 258.5 119 L 258.5 118 Z " /><path fill="rgb(182,225,242)" stroke="rgb(182,225,242)" stroke-width="1" opacity="0.08627450980392157" d="M 266.5 118 L 273 118.5 L 266.5 119 L 266.5 118 Z " /><path fill="rgb(182,225,242)" stroke="rgb(182,225,242)" stroke-width="1" opacity="0.08627450980392157" d="M 274.5 118 L 293 118.5 L 274.5 119 L 274.5 118 Z " /><path fill="rgb(182,225,242)" stroke="rgb(182,225,242)" stroke-width="1" opacity="0.08627450980392157" d="M 298.5 118 L 306 118.5 L 298.5 119 L 298.5 118 Z " /><path fill="rgb(182,225,242)" stroke="rgb(182,225,242)" stroke-width="1" opacity="0.08627450980392157" d="M 311.5 118 L 314 118.5 L 311.5 119 L 311.5 118 Z " /><path fill="rgb(182,225,242)" stroke="rgb(182,225,242)" stroke-width="1" opacity="0.08627450980392157" d="M 318.5 118 Q 323.8 116.3 322 121.5 L 317.5 127 L 312 126.5 L 318 126 L 321 119 Q 317.7 119.8 318.5 118 Z " /><path fill="rgb(182,225,242)" stroke="rgb(182,225,242)" stroke-width="1" opacity="0.08627450980392157" d="M 246.5 126 L 307 126.5 L 246.5 127 L 245.5 128 L 246.5 126 Z " /><path fill="rgb(182,225,242)" stroke="rgb(182,225,242)" stroke-width="1" opacity="0.08627450980392157" d="M 66.5 127 L 67 243.5 Q 72.3 273.7 91.5 290 Q 102.3 299.3 118 303.5 L 115.5 304 Q 94.3 297.3 82 281.5 L 73 267.5 L 69 257.5 L 66 243.5 L 66.5 127 Z " /><path fill="rgb(182,225,242)" stroke="rgb(182,225,242)" stroke-width="1" opacity="0.08627450980392157" d="M 251.5 133 L 252 170.5 L 251 170.5 L 251.5 133 Z " /><path fill="rgb(182,225,242)" stroke="rgb(182,225,242)" stroke-width="1" opacity="0.08627450980392157" d="M 313.5 133 L 314 134.5 L 309.5 142 L 260 142 L 260 209.5 Q 257.1 213.7 251 214 L 250 210.5 L 250 179.5 L 251 179.5 L 251 210.5 L 252.5 213 L 259 210 L 259 142.5 L 260.5 141 L 308.5 141 L 310 139.5 L 313.5 133 Z " /><path fill="rgb(182,225,242)" stroke="rgb(182,225,242)" stroke-width="1" opacity="0.08627450980392157" d="M 245.5 155 L 246 212.5 L 245 212.5 L 245.5 155 Z " /><path fill="rgb(182,225,242)" stroke="rgb(182,225,242)" stroke-width="1" opacity="0.08627450980392157" d="M 52.5 163 L 53 171.5 L 52 171.5 L 52.5 163 Z " /><path fill="rgb(182,225,242)" stroke="rgb(182,225,242)" stroke-width="1" opacity="0.08627450980392157" d="M 363.5 163 L 364 169.5 L 363 169.5 L 363.5 163 Z " /><path fill="rgb(182,225,242)" stroke="rgb(182,225,242)" stroke-width="1" opacity="0.08627450980392157" d="M 60.5 169 L 61 178.5 L 60 178.5 L 60.5 169 Z " /><path fill="rgb(182,225,242)" stroke="rgb(182,225,242)" stroke-width="1" opacity="0.08627450980392157" d="M 363.5 171 L 365 172.5 L 365 199.5 L 364 199.5 L 364 172.5 L 363.5 171 Z " /><path fill="rgb(182,225,242)" stroke="rgb(182,225,242)" stroke-width="1" opacity="0.08627450980392157" d="M 3.5 174 L 2 176.5 L 2 194.5 L 3 195.5 L 3 205.5 L 4 206.5 L 5 218.5 Q 8.8 238.7 16 255.5 Q 32.5 294 61.5 320 Q 93.3 349.7 142 362.5 L 139.5 363 Q 80.6 346.4 46 305.5 Q 25.2 282.3 13 250.5 L 6 228.5 L 3 212.5 L 2 195.5 L 1 194.5 L 1 176.5 L 3.5 174 Z " /><path fill="rgb(182,225,242)" stroke="rgb(182,225,242)" stroke-width="1" opacity="0.08627450980392157" d="M 52.5 174 L 53 178.5 L 52 178.5 L 52.5 174 Z " /><path fill="rgb(182,225,242)" stroke="rgb(182,225,242)" stroke-width="1" opacity="0.08627450980392157" d="M 371.5 179 L 372 192.5 L 371 192.5 L 371.5 179 Z " /><path fill="rgb(182,225,242)" stroke="rgb(182,225,242)" stroke-width="1" opacity="0.08627450980392157" d="M 8.5 180 L 9 186.5 L 8 186.5 L 8.5 180 Z " /><path fill="rgb(182,225,242)" stroke="rgb(182,225,242)" stroke-width="1" opacity="0.08627450980392157" d="M 305.5 180 Q 308.9 179.1 307 184.5 L 306 184.5 L 305.5 181 L 302.5 186 L 302 184.5 L 305.5 180 Z " /><path fill="rgb(182,225,242)" stroke="rgb(182,225,242)" stroke-width="1" opacity="0.08627450980392157" d="M 281 184 L 283 184.5 L 281 187.5 L 283.5 191 Q 289.3 190.3 292 186.5 L 292.5 184 L 293 188 L 286.5 192 L 282.5 192 L 280 186.5 L 281 184 Z " /><path fill="rgb(182,225,242)" stroke="rgb(182,225,242)" stroke-width="1" opacity="0.08627450980392157" d="M 52.5 187 L 53 212.5 L 52 212.5 L 52.5 187 Z " /><path fill="rgb(182,225,242)" stroke="rgb(182,225,242)" stroke-width="1" opacity="0.08627450980392157" d="M 296.5 188 L 295 190.5 Q 294.3 194.3 296.5 195 L 301.5 196 L 305 193.5 L 305.5 192 L 306 194.5 Q 304 198 297.5 197 L 294 194.5 Q 293 189 296.5 188 Z " /><path fill="rgb(182,225,242)" stroke="rgb(182,225,242)" stroke-width="1" opacity="0.08627450980392157" d="M 319.5 193 L 321 195.5 L 315.5 200 L 295.5 209 L 294 206.5 L 297.5 204 L 296.5 207 L 320 196 L 319.5 193 Z " /><path fill="rgb(182,225,242)" stroke="rgb(182,225,242)" stroke-width="1" opacity="0.08627450980392157" d="M 312.5 195 L 311.5 197 L 312.5 195 Z " /><path fill="rgb(182,225,242)" stroke="rgb(182,225,242)" stroke-width="1" opacity="0.08627450980392157" d="M 370.5 195 L 371 205.5 L 370 205.5 L 370.5 195 Z " /><path fill="rgb(182,225,242)" stroke="rgb(182,225,242)" stroke-width="1" opacity="0.08627450980392157" d="M 9.5 198 L 10 204.5 L 9 204.5 L 9.5 198 Z " /><path fill="rgb(182,225,242)" stroke="rgb(182,225,242)" stroke-width="1" opacity="0.08627450980392157" d="M 307.5 198 L 306.5 200 L 307.5 198 Z " /><path fill="rgb(182,225,242)" stroke="rgb(182,225,242)" stroke-width="1" opacity="0.08627450980392157" d="M 285.5 199 L 288 199.5 Q 288.6 204.6 285.5 206 L 284 206.5 L 285 208.5 Q 265.7 226.7 239.5 238 L 220.5 245 L 207.5 248 L 201.5 248 L 201.5 247 L 207.5 247 L 220.5 244 L 241.5 236 L 258.5 227 L 283 208.5 L 281 207.5 L 286 203.5 L 287 201.5 L 285.5 199 Z " /><path fill="rgb(182,225,242)" stroke="rgb(182,225,242)" stroke-width="1" opacity="0.08627450980392157" d="M 282.5 200 L 281.5 202 L 282.5 200 Z " /><path fill="rgb(182,225,242)" stroke="rgb(182,225,242)" stroke-width="1" opacity="0.08627450980392157" d="M 304.5 200 L 303.5 202 L 299.5 204 L 300.5 202 L 304.5 200 Z " /><path fill="rgb(182,225,242)" stroke="rgb(182,225,242)" stroke-width="1" opacity="0.08627450980392157" d="M 363.5 201 L 364 207.5 L 363 207.5 L 363.5 201 Z " /><path fill="rgb(182,225,242)" stroke="rgb(182,225,242)" stroke-width="1" opacity="0.08627450980392157" d="M 277.5 203 L 276.5 205 L 277.5 203 Z " /><path fill="rgb(182,225,242)" stroke="rgb(182,225,242)" stroke-width="1" opacity="0.08627450980392157" d="M 274.5 205 L 273.5 207 L 274.5 205 Z " /><path fill="rgb(182,225,242)" stroke="rgb(182,225,242)" stroke-width="1" opacity="0.08627450980392157" d="M 10.5 207 L 11 212.5 L 10 212.5 L 10.5 207 Z " /><path fill="rgb(182,225,242)" stroke="rgb(182,225,242)" stroke-width="1" opacity="0.08627450980392157" d="M 271.5 207 L 270.5 209 L 271.5 207 Z " /><path fill="rgb(182,225,242)" stroke="rgb(182,225,242)" stroke-width="1" opacity="0.08627450980392157" d="M 369.5 207 L 370 213.5 L 367.5 224 L 367 219.5 L 369.5 207 Z " /><path fill="rgb(182,225,242)" stroke="rgb(182,225,242)" stroke-width="1" opacity="0.08627450980392157" d="M 268.5 209 L 267.5 211 L 268.5 209 Z " /><path fill="rgb(182,225,242)" stroke="rgb(182,225,242)" stroke-width="1" opacity="0.08627450980392157" d="M 362.5 209 L 363 213.5 L 358.5 233 L 358 230.5 L 360 225.5 L 362.5 209 Z " /><path fill="rgb(182,225,242)" stroke="rgb(182,225,242)" stroke-width="1" opacity="0.08627450980392157" d="M 265.5 211 L 264.5 213 L 265.5 211 Z " /><path fill="rgb(182,225,242)" stroke="rgb(182,225,242)" stroke-width="1" opacity="0.08627450980392157" d="M 11.5 214 L 12 218.5 L 11 218.5 L 11.5 214 Z " /><path fill="rgb(182,225,242)" stroke="rgb(182,225,242)" stroke-width="1" opacity="0.08627450980392157" d="M 139 215 L 143 217.5 L 140 216.5 L 147 231 L 156.5 239 L 166.5 244 L 184 247.5 L 177.5 248 Q 162.4 245.6 153 237.5 Q 153.8 235.3 151.5 236 Q 140.8 229.5 139 215 Z " /><path fill="rgb(182,225,242)" stroke="rgb(182,225,242)" stroke-width="1" opacity="0.08627450980392157" d="M 143.5 219 L 144.5 221 L 143.5 219 Z " /><path fill="rgb(182,225,242)" stroke="rgb(182,225,242)" stroke-width="1" opacity="0.08627450980392157" d="M 251.5 219 L 250.5 221 L 249 220.5 L 251.5 219 Z " /><path fill="rgb(182,225,242)" stroke="rgb(182,225,242)" stroke-width="1" opacity="0.08627450980392157" d="M 12.5 220 L 13 223.5 L 12 223.5 L 12.5 220 Z " /><path fill="rgb(182,225,242)" stroke="rgb(182,225,242)" stroke-width="1" opacity="0.08627450980392157" d="M 147 220 L 154 225.5 L 148 221.5 L 149 223.5 L 147 222.5 L 147 220 Z " /><path fill="rgb(182,225,242)" stroke="rgb(182,225,242)" stroke-width="1" opacity="0.08627450980392157" d="M 13.5 225 L 15 231.5 L 14 231.5 L 13.5 225 Z " /><path fill="rgb(182,225,242)" stroke="rgb(182,225,242)" stroke-width="1" opacity="0.08627450980392157" d="M 366.5 225 L 367 228.5 L 359.5 251 L 359 249.5 Q 364.3 238.8 366.5 225 Z " /><path fill="rgb(182,225,242)" stroke="rgb(182,225,242)" stroke-width="1" opacity="0.08627450980392157" d="M 51.5 226 L 53 248.5 L 57 264.5 Q 64.1 283.9 77.5 297 Q 87.2 306.8 100.5 313 Q 110.8 317.8 124 319.5 L 119.5 320 Q 88.8 313.2 72 292.5 Q 61.5 281 56 264.5 L 52 248.5 L 51.5 226 Z " /><path fill="rgb(182,225,242)" stroke="rgb(182,225,242)" stroke-width="1" opacity="0.08627450980392157" d="M 157.5 227 L 158.5 229 L 157.5 227 Z " /><path fill="rgb(182,225,242)" stroke="rgb(182,225,242)" stroke-width="1" opacity="0.08627450980392157" d="M 160.5 229 L 161.5 231 L 160.5 229 Z " /><path fill="rgb(182,225,242)" stroke="rgb(182,225,242)" stroke-width="1" opacity="0.08627450980392157" d="M 15.5 233 L 17 238.5 L 16 238.5 L 15.5 233 Z " /><path fill="rgb(182,225,242)" stroke="rgb(182,225,242)" stroke-width="1" opacity="0.08627450980392157" d="M 259.5 233 L 260 266.5 L 259 266.5 L 259.5 233 Z " /><path fill="rgb(182,225,242)" stroke="rgb(182,225,242)" stroke-width="1" opacity="0.08627450980392157" d="M 357.5 234 L 358 236.5 Q 345 278 317.5 305 L 324 297.5 Q 346.4 271.4 357.5 234 Z " /><path fill="rgb(182,225,242)" stroke="rgb(182,225,242)" stroke-width="1" opacity="0.08627450980392157" d="M 252.5 235 L 252 236.5 L 251.5 254 L 251 236.5 L 252.5 235 Z " /><path fill="rgb(182,225,242)" stroke="rgb(182,225,242)" stroke-width="1" opacity="0.08627450980392157" d="M 61.5 242 L 62 247.5 L 61 247.5 L 61.5 242 Z " /><path fill="rgb(182,225,242)" stroke="rgb(182,225,242)" stroke-width="1" opacity="0.08627450980392157" d="M 237.5 242 L 237 243.5 L 237 325.5 L 238 327.5 L 237 327.5 L 236 325.5 L 236 243.5 L 237.5 242 Z " /><path fill="rgb(182,225,242)" stroke="rgb(182,225,242)" stroke-width="1" opacity="0.08627450980392157" d="M 91.5 245 Q 94.5 260.5 104 269.5 L 103 269.5 L 93 254.5 L 91 248.5 L 91.5 245 Z " /><path fill="rgb(182,225,242)" stroke="rgb(182,225,242)" stroke-width="1" opacity="0.08627450980392157" d="M 19.5 246 L 21 249.5 L 20 249.5 L 19.5 246 Z " /><path fill="rgb(182,225,242)" stroke="rgb(182,225,242)" stroke-width="1" opacity="0.08627450980392157" d="M 230.5 246 L 231 283 L 227.5 283 L 222 278.5 L 221 276.5 L 221 249.5 L 224 247.5 L 222 249.5 L 222 276.5 L 230 282 L 230.5 246 Z " /><path fill="rgb(182,225,242)" stroke="rgb(182,225,242)" stroke-width="1" opacity="0.08627450980392157" d="M 186.5 248 L 199 248.5 L 186.5 249 L 186.5 248 Z " /><path fill="rgb(182,225,242)" stroke="rgb(182,225,242)" stroke-width="1" opacity="0.08627450980392157" d="M 62.5 249 L 63 252.5 L 62 252.5 L 62.5 249 Z " /><path fill="rgb(182,225,242)" stroke="rgb(182,225,242)" stroke-width="1" opacity="0.08627450980392157" d="M 245.5 249 L 246 280.5 L 245 280.5 L 245.5 249 Z " /><path fill="rgb(182,225,242)" stroke="rgb(182,225,242)" stroke-width="1" opacity="0.08627450980392157" d="M 77.5 250 L 78 252.5 L 77 252.5 L 77.5 250 Z " /><path fill="rgb(182,225,242)" stroke="rgb(182,225,242)" stroke-width="1" opacity="0.08627450980392157" d="M 21.5 251 L 23 254.5 L 22 254.5 L 21.5 251 Z " /><path fill="rgb(182,225,242)" stroke="rgb(182,225,242)" stroke-width="1" opacity="0.08627450980392157" d="M 208.5 251 L 209 254.5 Q 205.4 270.9 196.5 282 L 198 279.5 L 206 262.5 L 208.5 251 Z " /><path fill="rgb(182,225,242)" stroke="rgb(182,225,242)" stroke-width="1" opacity="0.08627450980392157" d="M 179.5 252 L 179 253.5 Q 174.7 266.7 164.5 274 L 171 266.5 L 179.5 252 Z " /><path fill="rgb(182,225,242)" stroke="rgb(182,225,242)" stroke-width="1" opacity="0.08627450980392157" d="M 183.5 252 Q 187.5 251.5 188 254.5 L 185.5 253 Q 182.5 253.5 183.5 252 Z " /><path fill="rgb(182,225,242)" stroke="rgb(182,225,242)" stroke-width="1" opacity="0.08627450980392157" d="M 358.5 252 L 359 253.5 L 355.5 260 L 355 258.5 L 358.5 252 Z " /><path fill="rgb(182,225,242)" stroke="rgb(182,225,242)" stroke-width="1" opacity="0.08627450980392157" d="M 193.5 253 L 194 254.5 Q 190.8 267.8 182.5 276 L 185 272.5 Q 190.8 264.3 193.5 253 Z " /><path fill="rgb(182,225,242)" stroke="rgb(182,225,242)" stroke-width="1" opacity="0.08627450980392157" d="M 216.5 253 L 217 257.5 L 215.5 262 L 215 258.5 L 216.5 253 Z " /><path fill="rgb(182,225,242)" stroke="rgb(182,225,242)" stroke-width="1" opacity="0.08627450980392157" d="M 63.5 254 L 65 260.5 L 64 260.5 L 63.5 254 Z " /><path fill="rgb(182,225,242)" stroke="rgb(182,225,242)" stroke-width="1" opacity="0.08627450980392157" d="M 201.5 255 L 202 257.5 L 201 257.5 L 201.5 255 Z " /><path fill="rgb(182,225,242)" stroke="rgb(182,225,242)" stroke-width="1" opacity="0.08627450980392157" d="M 23.5 256 L 29 266.5 L 27 265.5 L 23 257.5 L 23.5 256 Z " /><path fill="rgb(182,225,242)" stroke="rgb(182,225,242)" stroke-width="1" opacity="0.08627450980392157" d="M 186.5 256 L 187 257.5 L 185.5 260 L 185 258.5 L 186.5 256 Z " /><path fill="rgb(182,225,242)" stroke="rgb(182,225,242)" stroke-width="1" opacity="0.08627450980392157" d="M 79.5 257 L 81 260.5 L 80 260.5 L 79.5 257 Z " /><path fill="rgb(182,225,242)" stroke="rgb(182,225,242)" stroke-width="1" opacity="0.08627450980392157" d="M 200.5 259 L 201 261.5 Q 195.4 277.4 184.5 288 Q 174.7 297.7 160.5 303 L 143.5 307 L 129.5 307 L 129.5 306 L 143.5 306 L 162.5 301 Q 177.8 294.3 188 282.5 Q 196.5 273 200.5 259 Z " /><path fill="rgb(182,225,242)" stroke="rgb(182,225,242)" stroke-width="1" opacity="0.08627450980392157" d="M 184.5 261 L 185 262.5 Q 180 273 171.5 280 L 156.5 289 L 145.5 292 L 137.5 292 L 137.5 291 L 145.5 291 L 153.5 289 Q 169.1 282.6 179 270.5 L 184.5 261 Z " /><path fill="rgb(182,225,242)" stroke="rgb(182,225,242)" stroke-width="1" opacity="0.08627450980392157" d="M 354.5 261 L 355 262.5 Q 338 299.5 308.5 324 Q 284 345.5 250.5 358 L 238.5 362 L 215.5 367 L 199.5 368 L 198.5 369 L 175.5 369 L 175.5 368 L 198.5 368 L 199.5 367 L 221.5 365 L 244.5 359 L 262.5 352 Q 302.4 333.4 329 301.5 Q 344.3 283.8 354.5 261 Z " /><path fill="rgb(182,225,242)" stroke="rgb(182,225,242)" stroke-width="1" opacity="0.08627450980392157" d="M 65.5 262 L 67 265.5 L 66 265.5 L 65.5 262 Z " /><path fill="rgb(182,225,242)" stroke="rgb(182,225,242)" stroke-width="1" opacity="0.08627450980392157" d="M 214.5 263 L 215 265.5 L 213.5 268 L 213 266.5 L 214.5 263 Z " /><path fill="rgb(182,225,242)" stroke="rgb(182,225,242)" stroke-width="1" opacity="0.08627450980392157" d="M 250.5 263 L 251 265.5 L 250 265.5 L 250.5 263 Z " /><path fill="rgb(182,225,242)" stroke="rgb(182,225,242)" stroke-width="1" opacity="0.08627450980392157" d="M 83.5 266 L 85 268.5 L 83 267.5 L 83.5 266 Z " /><path fill="rgb(182,225,242)" stroke="rgb(182,225,242)" stroke-width="1" opacity="0.08627450980392157" d="M 67.5 267 L 71 273.5 L 69 272.5 L 67.5 267 Z " /><path fill="rgb(182,225,242)" stroke="rgb(182,225,242)" stroke-width="1" opacity="0.08627450980392157" d="M 251.5 267 L 252 282 Q 256.7 281.6 259 277.5 L 259.5 276 L 260 278.5 L 254.5 283 L 251 283 L 251.5 267 Z " /><path fill="rgb(182,225,242)" stroke="rgb(182,225,242)" stroke-width="1" opacity="0.08627450980392157" d="M 212.5 269 L 213 271.5 Q 204.6 291.6 188.5 304 Q 177.3 313.3 161.5 318 L 147.5 321 L 125.5 321 L 125.5 320 L 147.5 320 L 161.5 317 Q 181.8 310.3 195 296.5 L 197 293.5 Q 207.3 283.8 212.5 269 Z " /><path fill="rgb(182,225,242)" stroke="rgb(182,225,242)" stroke-width="1" opacity="0.08627450980392157" d="M 85.5 270 L 86.5 272 L 85.5 270 Z " /><path fill="rgb(182,225,242)" stroke="rgb(182,225,242)" stroke-width="1" opacity="0.08627450980392157" d="M 105.5 270 L 109.5 275 L 105.5 270 Z " /><path fill="rgb(182,225,242)" stroke="rgb(182,225,242)" stroke-width="1" opacity="0.08627450980392157" d="M 31.5 272 L 32.5 274 L 31.5 272 Z " /><path fill="rgb(182,225,242)" stroke="rgb(182,225,242)" stroke-width="1" opacity="0.08627450980392157" d="M 87.5 273 L 90.5 277 L 87.5 273 Z " /><path fill="rgb(182,225,242)" stroke="rgb(182,225,242)" stroke-width="1" opacity="0.08627450980392157" d="M 162.5 274 L 161.5 276 L 162.5 274 Z " /><path fill="rgb(182,225,242)" stroke="rgb(182,225,242)" stroke-width="1" opacity="0.08627450980392157" d="M 111.5 275 L 112.5 277 L 111.5 275 Z " /><path fill="rgb(182,225,242)" stroke="rgb(182,225,242)" stroke-width="1" opacity="0.08627450980392157" d="M 34.5 277 L 35.5 279 L 34.5 277 Z " /><path fill="rgb(182,225,242)" stroke="rgb(182,225,242)" stroke-width="1" opacity="0.08627450980392157" d="M 72.5 277 L 73.5 279 L 72.5 277 Z " /><path fill="rgb(182,225,242)" stroke="rgb(182,225,242)" stroke-width="1" opacity="0.08627450980392157" d="M 181.5 277 L 175.5 284 L 181.5 277 Z " /><path fill="rgb(182,225,242)" stroke="rgb(182,225,242)" stroke-width="1" opacity="0.08627450980392157" d="M 91.5 278 L 95.5 283 L 91.5 278 Z " /><path fill="rgb(182,225,242)" stroke="rgb(182,225,242)" stroke-width="1" opacity="0.08627450980392157" d="M 36.5 280 L 40 284.5 L 37 282.5 L 36.5 280 Z " /><path fill="rgb(182,225,242)" stroke="rgb(182,225,242)" stroke-width="1" opacity="0.08627450980392157" d="M 74.5 280 L 75.5 282 L 74.5 280 Z " /><path fill="rgb(182,225,242)" stroke="rgb(182,225,242)" stroke-width="1" opacity="0.08627450980392157" d="M 76.5 283 L 89.5 297 L 76.5 283 Z " /><path fill="rgb(182,225,242)" stroke="rgb(182,225,242)" stroke-width="1" opacity="0.08627450980392157" d="M 97.5 283 L 99.5 286 L 97.5 283 Z " /><path fill="rgb(182,225,242)" stroke="rgb(182,225,242)" stroke-width="1" opacity="0.08627450980392157" d="M 195.5 283 L 193 286.5 L 188.5 292 L 192 287.5 L 195.5 283 Z " /><path fill="rgb(182,225,242)" stroke="rgb(182,225,242)" stroke-width="1" opacity="0.08627450980392157" d="M 245.5 283 L 246 323.5 L 245 323.5 L 245.5 283 Z " /><path fill="rgb(182,225,242)" stroke="rgb(182,225,242)" stroke-width="1" opacity="0.08627450980392157" d="M 172.5 285 L 171.5 287 L 172.5 285 Z " /><path fill="rgb(182,225,242)" stroke="rgb(182,225,242)" stroke-width="1" opacity="0.08627450980392157" d="M 40.5 286 L 45 291.5 L 41 288.5 L 40.5 286 Z " /><path fill="rgb(182,225,242)" stroke="rgb(182,225,242)" stroke-width="1" opacity="0.08627450980392157" d="M 101.5 286 L 102.5 288 L 101.5 286 Z " /><path fill="rgb(182,225,242)" stroke="rgb(182,225,242)" stroke-width="1" opacity="0.08627450980392157" d="M 169.5 287 L 168.5 289 L 169.5 287 Z " /><path fill="rgb(182,225,242)" stroke="rgb(182,225,242)" stroke-width="1" opacity="0.08627450980392157" d="M 104.5 288 L 105.5 290 L 104.5 288 Z " /><path fill="rgb(182,225,242)" stroke="rgb(182,225,242)" stroke-width="1" opacity="0.08627450980392157" d="M 186.5 292 L 181.5 298 L 186.5 292 Z " /><path fill="rgb(182,225,242)" stroke="rgb(182,225,242)" stroke-width="1" opacity="0.08627450980392157" d="M 45.5 293 L 48.5 297 L 45.5 293 Z " /><path fill="rgb(182,225,242)" stroke="rgb(182,225,242)" stroke-width="1" opacity="0.08627450980392157" d="M 91.5 297 L 92.5 299 L 91.5 297 Z " /><path fill="rgb(182,225,242)" stroke="rgb(182,225,242)" stroke-width="1" opacity="0.08627450980392157" d="M 138.5 297 L 141 297.5 L 138.5 298 L 138.5 297 Z " /><path fill="rgb(182,225,242)" stroke="rgb(182,225,242)" stroke-width="1" opacity="0.08627450980392157" d="M 49.5 298 L 63 312.5 L 55 305.5 L 49.5 298 Z " /><path fill="rgb(182,225,242)" stroke="rgb(182,225,242)" stroke-width="1" opacity="0.08627450980392157" d="M 179.5 298 L 178.5 300 L 179.5 298 Z " /><path fill="rgb(182,225,242)" stroke="rgb(182,225,242)" stroke-width="1" opacity="0.08627450980392157" d="M 94.5 299 L 95.5 301 L 94.5 299 Z " /><path fill="rgb(182,225,242)" stroke="rgb(182,225,242)" stroke-width="1" opacity="0.08627450980392157" d="M 176.5 300 L 175.5 302 L 176.5 300 Z " /><path fill="rgb(182,225,242)" stroke="rgb(182,225,242)" stroke-width="1" opacity="0.08627450980392157" d="M 99.5 302 L 100.5 304 L 99.5 302 Z " /><path fill="rgb(182,225,242)" stroke="rgb(182,225,242)" stroke-width="1" opacity="0.08627450980392157" d="M 119.5 304 L 128 305.5 L 123.5 306 L 119.5 305 L 119.5 304 Z " /><path fill="rgb(182,225,242)" stroke="rgb(182,225,242)" stroke-width="1" opacity="0.08627450980392157" d="M 314.5 307 L 313.5 309 L 314.5 307 Z " /><path fill="rgb(182,225,242)" stroke="rgb(182,225,242)" stroke-width="1" opacity="0.08627450980392157" d="M 311.5 310 L 301.5 321 L 311.5 310 Z " /><path fill="rgb(182,225,242)" stroke="rgb(182,225,242)" stroke-width="1" opacity="0.08627450980392157" d="M 64.5 313 L 72.5 322 L 64.5 313 Z " /><path fill="rgb(182,225,242)" stroke="rgb(182,225,242)" stroke-width="1" opacity="0.08627450980392157" d="M 299.5 321 L 297.5 324 L 299.5 321 Z " /><path fill="rgb(182,225,242)" stroke="rgb(182,225,242)" stroke-width="1" opacity="0.08627450980392157" d="M 74.5 322 L 76.5 325 L 74.5 322 Z " /><path fill="rgb(182,225,242)" stroke="rgb(182,225,242)" stroke-width="1" opacity="0.08627450980392157" d="M 295.5 324 L 293.5 327 L 295.5 324 Z " /><path fill="rgb(182,225,242)" stroke="rgb(182,225,242)" stroke-width="1" opacity="0.08627450980392157" d="M 78.5 325 L 80.5 328 L 78.5 325 Z " /><path fill="rgb(182,225,242)" stroke="rgb(182,225,242)" stroke-width="1" opacity="0.08627450980392157" d="M 244.5 326 L 245 329 L 239 328.5 L 244 328 L 244.5 326 Z " /><path fill="rgb(182,225,242)" stroke="rgb(182,225,242)" stroke-width="1" opacity="0.08627450980392157" d="M 82.5 328 L 83.5 330 L 82.5 328 Z " /><path fill="rgb(182,225,242)" stroke="rgb(182,225,242)" stroke-width="1" opacity="0.08627450980392157" d="M 290.5 328 L 289.5 330 L 290.5 328 Z " /><path fill="rgb(182,225,242)" stroke="rgb(182,225,242)" stroke-width="1" opacity="0.08627450980392157" d="M 85.5 330 L 86.5 332 L 85.5 330 Z " /><path fill="rgb(182,225,242)" stroke="rgb(182,225,242)" stroke-width="1" opacity="0.08627450980392157" d="M 287.5 330 L 286.5 332 L 287.5 330 Z " /><path fill="rgb(182,225,242)" stroke="rgb(182,225,242)" stroke-width="1" opacity="0.08627450980392157" d="M 88.5 332 L 89.5 334 L 88.5 332 Z " /><path fill="rgb(182,225,242)" stroke="rgb(182,225,242)" stroke-width="1" opacity="0.08627450980392157" d="M 284.5 332 L 283.5 334 L 284.5 332 Z " /><path fill="rgb(182,225,242)" stroke="rgb(182,225,242)" stroke-width="1" opacity="0.08627450980392157" d="M 281.5 334 L 280.5 336 L 281.5 334 Z " /><path fill="rgb(182,225,242)" stroke="rgb(182,225,242)" stroke-width="1" opacity="0.08627450980392157" d="M 93.5 335 L 94.5 337 L 93.5 335 Z " /><path fill="rgb(182,225,242)" stroke="rgb(182,225,242)" stroke-width="1" opacity="0.08627450980392157" d="M 276.5 337 L 275.5 339 L 276.5 337 Z " /><path fill="rgb(182,225,242)" stroke="rgb(182,225,242)" stroke-width="1" opacity="0.08627450980392157" d="M 100.5 339 L 101.5 341 L 100.5 339 Z " /><path fill="rgb(182,225,242)" stroke="rgb(182,225,242)" stroke-width="1" opacity="0.08627450980392157" d="M 185.5 361 L 190 361.5 L 185.5 362 L 185.5 361 Z " /><path fill="rgb(182,225,242)" stroke="rgb(182,225,242)" stroke-width="1" opacity="0.08627450980392157" d="M 143.5 363 L 151 364.5 L 147.5 365 L 143.5 364 L 143.5 363 Z " /><path fill="rgb(182,225,242)" stroke="rgb(182,225,242)" stroke-width="1" opacity="0.08627450980392157" d="M 152.5 365 L 157 365.5 L 152.5 366 L 152.5 365 Z " /><path fill="rgb(182,225,242)" stroke="rgb(182,225,242)" stroke-width="1" opacity="0.08627450980392157" d="M 158.5 366 L 174 367.5 L 165.5 368 Q 164 365.5 158.5 367 L 158.5 366 Z " /><path fill="rgb(116,212,242)" stroke="rgb(116,212,242)" stroke-width="1" opacity="0.7411764705882353" d="M 187.5 4 L 190.5 5 L 205.5 5 L 206.5 6 L 224.5 8 Q 245.8 12.7 263.5 21 Q 296.6 36.4 320 61.5 L 318.5 65 L 313 63 L 310.5 59 Q 296.9 45.6 280 35.5 L 281.5 36 L 299.5 48 L 316.5 64 L 318 64 L 318 61.5 L 307.5 51 Q 280.7 26.8 242.5 14 L 228.5 10 L 205.5 6 L 169.5 6 L 161.5 8 L 154.5 8 L 128.5 15 L 128.5 14 L 154.5 7 L 160.5 7 L 168.5 5 L 186.5 5 L 187.5 4 Z " /><path fill="rgb(116,212,242)" stroke="rgb(116,212,242)" stroke-width="1" opacity="0.7411764705882353" d="M 169.5 9 L 182 9.5 L 169.5 10 L 169.5 9 Z " /><path fill="rgb(116,212,242)" stroke="rgb(116,212,242)" stroke-width="1" opacity="0.7411764705882353" d="M 191.5 9 L 206 9.5 L 191.5 10 L 191.5 9 Z " /><path fill="rgb(116,212,242)" stroke="rgb(116,212,242)" stroke-width="1" opacity="0.7411764705882353" d="M 161.5 10 L 168 10.5 L 161.5 11 L 161.5 10 Z " /><path fill="rgb(116,212,242)" stroke="rgb(116,212,242)" stroke-width="1" opacity="0.7411764705882353" d="M 207.5 10 L 212 10.5 L 207.5 11 L 207.5 10 Z " /><path fill="rgb(116,212,242)" stroke="rgb(116,212,242)" stroke-width="1" opacity="0.7411764705882353" d="M 155.5 11 L 160 11.5 L 155.5 12 L 155.5 11 Z " /><path fill="rgb(116,212,242)" stroke="rgb(116,212,242)" stroke-width="1" opacity="0.7411764705882353" d="M 214.5 11 L 219 11.5 L 214.5 12 L 214.5 11 Z " /><path fill="rgb(116,212,242)" stroke="rgb(116,212,242)" stroke-width="1" opacity="0.7411764705882353" d="M 149.5 12 L 154 12.5 L 131.5 18 L 131.5 17 L 149.5 12 Z " /><path fill="rgb(116,212,242)" stroke="rgb(116,212,242)" stroke-width="1" opacity="0.7411764705882353" d="M 220.5 12 L 224 12.5 L 220.5 13 L 220.5 12 Z " /><path fill="rgb(116,212,242)" stroke="rgb(116,212,242)" stroke-width="1" opacity="0.7411764705882353" d="M 225.5 13 L 232 14.5 L 229.5 15 L 225.5 14 L 225.5 13 Z " /><path fill="rgb(116,212,242)" stroke="rgb(116,212,242)" stroke-width="1" opacity="0.7411764705882353" d="M 233.5 15 L 236 15.5 L 233.5 16 L 233.5 15 Z " /><path fill="rgb(116,212,242)" stroke="rgb(116,212,242)" stroke-width="1" opacity="0.7411764705882353" d="M 122.5 16 L 124 16.5 L 95.5 30 L 96.5 28 L 122.5 16 Z " /><path fill="rgb(116,212,242)" stroke="rgb(116,212,242)" stroke-width="1" opacity="0.7411764705882353" d="M 240.5 17 L 245 18.5 L 243.5 19 L 240.5 18 L 240.5 17 Z " /><path fill="rgb(116,212,242)" stroke="rgb(116,212,242)" stroke-width="1" opacity="0.7411764705882353" d="M 125.5 19 L 127 19.5 L 118.5 23 L 118.5 22 L 125.5 19 Z " /><path fill="rgb(116,212,242)" stroke="rgb(116,212,242)" stroke-width="1" opacity="0.7411764705882353" d="M 249.5 20 L 260 24.5 L 258.5 25 L 249.5 21 L 249.5 20 Z " /><path fill="rgb(116,212,242)" stroke="rgb(116,212,242)" stroke-width="1" opacity="0.7411764705882353" d="M 115.5 23 L 117 23.5 L 107.5 28 L 108.5 26 L 115.5 23 Z " /><path fill="rgb(116,212,242)" stroke="rgb(116,212,242)" stroke-width="1" opacity="0.7411764705882353" d="M 261.5 25 L 272 30.5 L 270.5 30 L 261.5 26 L 261.5 25 Z " /><path fill="rgb(116,212,242)" stroke="rgb(116,212,242)" stroke-width="1" opacity="0.7411764705882353" d="M 104.5 28 L 106 28.5 Q 89.3 36.3 76.5 48 L 79.5 44 L 104.5 28 Z " /><path fill="rgb(116,212,242)" stroke="rgb(116,212,242)" stroke-width="1" opacity="0.7411764705882353" d="M 93.5 30 L 92.5 32 Q 70.9 43.9 55 61.5 Q 53.8 65.3 57.5 64 L 60 60 L 62 60 Q 60.9 57.3 63.5 58 L 69 53.5 L 57.5 65 L 54 65 Q 53.1 59.1 57.5 57 Q 73.5 41.5 93.5 30 Z " /><path fill="rgb(116,212,242)" stroke="rgb(116,212,242)" stroke-width="1" opacity="0.7411764705882353" d="M 273.5 31 L 279 34.5 L 277.5 34 Q 273.5 33.5 273.5 31 Z " /><path fill="rgb(116,212,242)" stroke="rgb(116,212,242)" stroke-width="1" opacity="0.7411764705882353" d="M 74.5 48 L 71.5 52 L 74.5 48 Z " /><path fill="rgb(116,212,242)" stroke="rgb(116,212,242)" stroke-width="1" opacity="0.7411764705882353" d="M 54.5 90 L 60 93 L 61 102.5 L 60 104.5 L 61 107 Q 57.3 108.3 59 102.5 Q 61.3 101.2 60 96.5 L 55.5 91 L 53.5 92 L 54.5 90 Z " /><path fill="rgb(116,212,242)" stroke="rgb(116,212,242)" stroke-width="1" opacity="0.7411764705882353" d="M 180.5 90 Q 185 89 186 91.5 L 186 230.5 L 184.5 231 L 185 229.5 L 185 92.5 L 183.5 91 L 180 92.5 L 179.5 188 L 179 91.5 L 180.5 90 Z " /><path fill="rgb(116,212,242)" stroke="rgb(116,212,242)" stroke-width="1" opacity="0.7411764705882353" d="M 194 90 Q 199.4 88.5 201 91.5 L 200.5 155 L 200 92.5 L 198.5 91 L 194.5 92 L 194 90 Z " /><path fill="rgb(116,212,242)" stroke="rgb(116,212,242)" stroke-width="1" opacity="0.7411764705882353" d="M 209.5 90 Q 214 89 215 91.5 L 215 227.5 L 213.5 229 L 214 227.5 L 214 92.5 L 212.5 91 L 209 92.5 L 208.5 214 L 208 91.5 L 209.5 90 Z " /><path fill="rgb(116,212,242)" stroke="rgb(116,212,242)" stroke-width="1" opacity="0.7411764705882353" d="M 223 90 L 338.5 90 L 340 91.5 L 335.5 97 L 313 96.5 L 334.5 96 L 337 93.5 L 336.5 91 L 334.5 91 L 229.5 91 L 228.5 92 L 224 91 L 223.5 93 L 223 90 Z " /><path fill="rgb(116,212,242)" stroke="rgb(116,212,242)" stroke-width="1" opacity="0.7411764705882353" d="M 223.5 94 L 224 96 L 227 96.5 L 223 97 L 223.5 94 Z " /><path fill="rgb(116,212,242)" stroke="rgb(116,212,242)" stroke-width="1" opacity="0.7411764705882353" d="M 232.5 96 L 235 96.5 L 232.5 97 L 232.5 96 Z " /><path fill="rgb(116,212,242)" stroke="rgb(116,212,242)" stroke-width="1" opacity="0.7411764705882353" d="M 237.5 96 L 240 96.5 L 237.5 97 L 237.5 96 Z " /><path fill="rgb(116,212,242)" stroke="rgb(116,212,242)" stroke-width="1" opacity="0.7411764705882353" d="M 247.5 96 L 256 96.5 L 247.5 97 L 247.5 96 Z " /><path fill="rgb(116,212,242)" stroke="rgb(116,212,242)" stroke-width="1" opacity="0.7411764705882353" d="M 275.5 96 L 304 96.5 L 275.5 97 L 275.5 96 Z " /><path fill="rgb(116,212,242)" stroke="rgb(116,212,242)" stroke-width="1" opacity="0.7411764705882353" d="M 68 101 L 75 106.5 L 74.5 183 L 74 106.5 L 70.5 103 L 69 103.5 L 69 157.5 L 68 157.5 L 68 101 Z " /><path fill="rgb(116,212,242)" stroke="rgb(116,212,242)" stroke-width="1" opacity="0.7411764705882353" d="M 232.5 105 L 329.5 105 L 330 106.5 L 325.5 112 L 243 111.5 L 326 111 L 328 106 L 232.5 106 L 232.5 105 Z " /><path fill="rgb(116,212,242)" stroke="rgb(116,212,242)" stroke-width="1" opacity="0.7411764705882353" d="M 348 106 Q 351.8 105 353 107.5 L 360 123.5 L 366 143.5 L 370 166.5 L 370 178.5 L 369 178.5 L 368 161.5 L 364 140.5 L 355 114.5 L 350.5 107 Q 347.9 106.2 349 109.5 L 353 118.5 L 352 118.5 L 348 110.5 L 348 106 Z " /><path fill="rgb(116,212,242)" stroke="rgb(116,212,242)" stroke-width="1" opacity="0.7411764705882353" d="M 229.5 112 L 230 222.5 L 228 223.5 L 229 222.5 L 229 131.5 L 228 127.5 L 229 126.5 L 229.5 112 Z " /><path fill="rgb(116,212,242)" stroke="rgb(116,212,242)" stroke-width="1" opacity="0.7411764705882353" d="M 83.5 114 L 90 119.5 L 88.5 123 Q 89.1 118.4 86.5 117 L 82 115.5 L 83.5 114 Z " /><path fill="rgb(116,212,242)" stroke="rgb(116,212,242)" stroke-width="1" opacity="0.7411764705882353" d="M 223.5 115 L 224 162.5 L 223 162.5 L 223.5 115 Z " /><path fill="rgb(116,212,242)" stroke="rgb(116,212,242)" stroke-width="1" opacity="0.7411764705882353" d="M 238 119 L 320.5 119 L 321 120.5 L 318 126 L 245 125.5 L 316.5 125 L 318 123.5 L 320 120.5 L 239.5 120 L 238 120.5 L 238 119 Z " /><path fill="rgb(116,212,242)" stroke="rgb(116,212,242)" stroke-width="1" opacity="0.7411764705882353" d="M 353.5 120 L 355 123.5 L 354 123.5 L 353.5 120 Z " /><path fill="rgb(116,212,242)" stroke="rgb(116,212,242)" stroke-width="1" opacity="0.7411764705882353" d="M 355.5 125 L 359 135.5 L 358 135.5 L 355.5 125 Z " /><path fill="rgb(116,212,242)" stroke="rgb(116,212,242)" stroke-width="1" opacity="0.7411764705882353" d="M 244.5 127 L 245 133.5 L 244 133.5 L 244.5 127 Z " /><path fill="rgb(116,212,242)" stroke="rgb(116,212,242)" stroke-width="1" opacity="0.7411764705882353" d="M 238.5 128 L 239 131.5 L 238 131.5 L 238.5 128 Z " /><path fill="rgb(116,212,242)" stroke="rgb(116,212,242)" stroke-width="1" opacity="0.7411764705882353" d="M 253.5 133 L 310.5 133 L 312 134.5 L 310 140 L 301 139.5 L 308.5 139 L 310 137.5 L 311 135.5 L 309.5 134 L 253 134 L 252.5 207 L 252 134.5 L 253.5 133 Z " /><path fill="rgb(116,212,242)" stroke="rgb(116,212,242)" stroke-width="1" opacity="0.7411764705882353" d="M 359.5 137 L 361 142.5 L 360 142.5 L 359.5 137 Z " /><path fill="rgb(116,212,242)" stroke="rgb(116,212,242)" stroke-width="1" opacity="0.7411764705882353" d="M 244.5 138 L 245 154.5 L 244 154.5 L 244.5 138 Z " /><path fill="rgb(116,212,242)" stroke="rgb(116,212,242)" stroke-width="1" opacity="0.7411764705882353" d="M 294.5 139 L 298 139.5 L 294.5 140 L 294.5 139 Z " /><path fill="rgb(116,212,242)" stroke="rgb(116,212,242)" stroke-width="1" opacity="0.7411764705882353" d="M 258.5 141 L 259 208.5 L 257 209.5 L 258 208.5 L 258.5 141 Z " /><path fill="rgb(116,212,242)" stroke="rgb(116,212,242)" stroke-width="1" opacity="0.7411764705882353" d="M 361.5 144 L 362 146.5 L 361 146.5 L 361.5 144 Z " /><path fill="rgb(116,212,242)" stroke="rgb(116,212,242)" stroke-width="1" opacity="0.7411764705882353" d="M 362.5 148 L 363 151.5 L 362 151.5 L 362.5 148 Z " /><path fill="rgb(116,212,242)" stroke="rgb(116,212,242)" stroke-width="1" opacity="0.7411764705882353" d="M 363.5 154 L 364 157.5 L 363 157.5 L 363.5 154 Z " /><path fill="rgb(116,212,242)" stroke="rgb(116,212,242)" stroke-width="1" opacity="0.7411764705882353" d="M 364.5 162 L 365 164.5 L 364 164.5 L 364.5 162 Z " /><path fill="rgb(116,212,242)" stroke="rgb(116,212,242)" stroke-width="1" opacity="0.7411764705882353" d="M 365.5 171 L 366 174.5 L 365 174.5 L 365.5 171 Z " /><path fill="rgb(116,212,242)" stroke="rgb(116,212,242)" stroke-width="1" opacity="0.7411764705882353" d="M 4.5 175 L 7 175.5 L 4 176 L 3.5 178 L 3 176.5 L 4.5 175 Z " /><path fill="rgb(116,212,242)" stroke="rgb(116,212,242)" stroke-width="1" opacity="0.7411764705882353" d="M 366.5 180 L 367 185.5 L 366 185.5 L 366.5 180 Z " /><path fill="rgb(116,212,242)" stroke="rgb(116,212,242)" stroke-width="1" opacity="0.7411764705882353" d="M 305.5 182 L 306 186.5 L 304.5 186 L 300.5 189 L 304 184.5 L 305.5 182 Z " /><path fill="rgb(116,212,242)" stroke="rgb(116,212,242)" stroke-width="1" opacity="0.7411764705882353" d="M 283.5 184 Q 284.8 186.2 289.5 185 L 292 184 Q 293.5 187.8 290.5 187 L 284.5 191 Q 281.3 190.3 282 185.5 L 283.5 184 Z M 283 186 L 285 190 L 290 187 L 283 186 Z " /><path fill="rgb(116,212,242)" stroke="rgb(116,212,242)" stroke-width="1" opacity="0.7411764705882353" d="M 370.5 184 L 371 186.5 L 370 186.5 L 370.5 184 Z " /><path fill="rgb(116,212,242)" stroke="rgb(116,212,242)" stroke-width="1" opacity="0.7411764705882353" d="M 74.5 185 L 75 190.5 L 74 190.5 L 74.5 185 Z " /><path fill="rgb(116,212,242)" stroke="rgb(116,212,242)" stroke-width="1" opacity="0.7411764705882353" d="M 296 189 L 298 189.5 L 296 190.5 L 296 189 Z " /><path fill="rgb(116,212,242)" stroke="rgb(116,212,242)" stroke-width="1" opacity="0.7411764705882353" d="M 295.5 192 L 297.5 195 L 295.5 192 Z " /><path fill="rgb(116,212,242)" stroke="rgb(116,212,242)" stroke-width="1" opacity="0.7411764705882353" d="M 304.5 192 L 305 193.5 L 303 194.5 L 304.5 192 Z " /><path fill="rgb(116,212,242)" stroke="rgb(116,212,242)" stroke-width="1" opacity="0.7411764705882353" d="M 369.5 193 L 370 204.5 L 368.5 212 L 368 204.5 L 369 203.5 L 369.5 193 Z " /><path fill="rgb(116,212,242)" stroke="rgb(116,212,242)" stroke-width="1" opacity="0.7411764705882353" d="M 319.5 194 L 318.5 196 L 319.5 194 Z " /><path fill="rgb(116,212,242)" stroke="rgb(116,212,242)" stroke-width="1" opacity="0.7411764705882353" d="M 223.5 195 L 224 199.5 L 223 199.5 L 223.5 195 Z " /><path fill="rgb(116,212,242)" stroke="rgb(116,212,242)" stroke-width="1" opacity="0.7411764705882353" d="M 314.5 195 L 313.5 197 L 314.5 195 Z " /><path fill="rgb(116,212,242)" stroke="rgb(116,212,242)" stroke-width="1" opacity="0.7411764705882353" d="M 365.5 196 L 366 200.5 L 365 200.5 L 365.5 196 Z " /><path fill="rgb(116,212,242)" stroke="rgb(116,212,242)" stroke-width="1" opacity="0.7411764705882353" d="M 309.5 198 L 312 199.5 L 297.5 206 L 297.5 205 L 309.5 198 Z " /><path fill="rgb(116,212,242)" stroke="rgb(116,212,242)" stroke-width="1" opacity="0.7411764705882353" d="M 281.5 202 L 283 202.5 L 277.5 207 L 276.5 205 L 281.5 202 Z " /><path fill="rgb(116,212,242)" stroke="rgb(116,212,242)" stroke-width="1" opacity="0.7411764705882353" d="M 364.5 206 L 365 210.5 L 364 210.5 L 364.5 206 Z " /><path fill="rgb(116,212,242)" stroke="rgb(116,212,242)" stroke-width="1" opacity="0.7411764705882353" d="M 279.5 207 L 276.5 211 L 279.5 207 Z " /><path fill="rgb(116,212,242)" stroke="rgb(116,212,242)" stroke-width="1" opacity="0.7411764705882353" d="M 271.5 208 L 269.5 211 L 261.5 216 L 262.5 214 L 271.5 208 Z " /><path fill="rgb(116,212,242)" stroke="rgb(116,212,242)" stroke-width="1" opacity="0.7411764705882353" d="M 281.5 209 L 279.5 212 L 262.5 224 L 262 222 L 281.5 209 Z " /><path fill="rgb(116,212,242)" stroke="rgb(116,212,242)" stroke-width="1" opacity="0.7411764705882353" d="M 274.5 211 L 272.5 214 L 274.5 211 Z " /><path fill="rgb(116,212,242)" stroke="rgb(116,212,242)" stroke-width="1" opacity="0.7411764705882353" d="M 367.5 214 L 368 217.5 L 366.5 223 L 366 218.5 L 367.5 214 Z " /><path fill="rgb(116,212,242)" stroke="rgb(116,212,242)" stroke-width="1" opacity="0.7411764705882353" d="M 243.5 216 L 242.5 218 L 238.5 220 L 238 218 L 243.5 216 Z " /><path fill="rgb(116,212,242)" stroke="rgb(116,212,242)" stroke-width="1" opacity="0.7411764705882353" d="M 257.5 217 L 256.5 219 L 254.5 220 L 255.5 218 L 257.5 217 Z " /><path fill="rgb(116,212,242)" stroke="rgb(116,212,242)" stroke-width="1" opacity="0.7411764705882353" d="M 208.5 219 L 209 221.5 L 208 221.5 L 208.5 219 Z " /><path fill="rgb(116,212,242)" stroke="rgb(116,212,242)" stroke-width="1" opacity="0.7411764705882353" d="M 362.5 220 L 363 223.5 L 362 223.5 L 362.5 220 Z " /><path fill="rgb(116,212,242)" stroke="rgb(116,212,242)" stroke-width="1" opacity="0.7411764705882353" d="M 151.5 224 L 164 232.5 L 162.5 232 Q 154 230 151.5 224 Z " /><path fill="rgb(116,212,242)" stroke="rgb(116,212,242)" stroke-width="1" opacity="0.7411764705882353" d="M 179.5 224 L 180 227.5 L 179 227.5 L 179.5 224 Z " /><path fill="rgb(116,212,242)" stroke="rgb(116,212,242)" stroke-width="1" opacity="0.7411764705882353" d="M 223.5 224 L 226 224.5 L 223.5 225 L 223.5 224 Z " /><path fill="rgb(116,212,242)" stroke="rgb(116,212,242)" stroke-width="1" opacity="0.7411764705882353" d="M 365.5 224 L 366 227.5 L 364.5 232 L 364 228.5 L 365.5 224 Z " /><path fill="rgb(116,212,242)" stroke="rgb(116,212,242)" stroke-width="1" opacity="0.7411764705882353" d="M 208.5 225 L 210 228.5 L 208 229 L 208.5 225 Z " /><path fill="rgb(116,212,242)" stroke="rgb(116,212,242)" stroke-width="1" opacity="0.7411764705882353" d="M 361.5 225 L 362 227.5 L 361 227.5 L 361.5 225 Z " /><path fill="rgb(116,212,242)" stroke="rgb(116,212,242)" stroke-width="1" opacity="0.7411764705882353" d="M 255 226 L 257 226.5 L 255 227.5 L 255 226 Z " /><path fill="rgb(116,212,242)" stroke="rgb(116,212,242)" stroke-width="1" opacity="0.7411764705882353" d="M 146.5 228 L 147.5 230 L 146.5 228 Z " /><path fill="rgb(116,212,242)" stroke="rgb(116,212,242)" stroke-width="1" opacity="0.7411764705882353" d="M 234.5 228 L 236 228.5 L 232.5 230 L 232.5 229 L 234.5 228 Z " /><path fill="rgb(116,212,242)" stroke="rgb(116,212,242)" stroke-width="1" opacity="0.7411764705882353" d="M 252.5 228 L 254 228.5 L 251.5 230 L 252.5 228 Z " /><path fill="rgb(116,212,242)" stroke="rgb(116,212,242)" stroke-width="1" opacity="0.7411764705882353" d="M 360.5 229 L 361 231.5 L 360 231.5 L 360.5 229 Z " /><path fill="rgb(116,212,242)" stroke="rgb(116,212,242)" stroke-width="1" opacity="0.7411764705882353" d="M 219.5 233 L 222 233.5 L 219.5 234 L 219.5 233 Z " /><path fill="rgb(116,212,242)" stroke="rgb(116,212,242)" stroke-width="1" opacity="0.7411764705882353" d="M 363.5 233 L 364 235.5 L 362.5 239 L 362 236.5 L 363.5 233 Z " /><path fill="rgb(116,212,242)" stroke="rgb(116,212,242)" stroke-width="1" opacity="0.7411764705882353" d="M 253.5 236 L 253 237.5 L 252.5 277 L 252 237.5 L 253.5 236 Z " /><path fill="rgb(116,212,242)" stroke="rgb(116,212,242)" stroke-width="1" opacity="0.7411764705882353" d="M 198.5 237 L 201 237.5 L 198.5 238 L 198.5 237 Z " /><path fill="rgb(116,212,242)" stroke="rgb(116,212,242)" stroke-width="1" opacity="0.7411764705882353" d="M 258.5 237 L 259 240.5 L 258 240.5 L 258.5 237 Z " /><path fill="rgb(116,212,242)" stroke="rgb(116,212,242)" stroke-width="1" opacity="0.7411764705882353" d="M 74.5 241 L 75 243.5 L 74 243.5 L 74.5 241 Z " /><path fill="rgb(116,212,242)" stroke="rgb(116,212,242)" stroke-width="1" opacity="0.7411764705882353" d="M 227.5 247 L 230 247 L 230 253.5 L 229 253.5 Q 230.3 247.4 227.5 248 L 227.5 247 Z " /><path fill="rgb(116,212,242)" stroke="rgb(116,212,242)" stroke-width="1" opacity="0.7411764705882353" d="M 258.5 248 L 259 252.5 L 258 252.5 L 258.5 248 Z " /><path fill="rgb(116,212,242)" stroke="rgb(116,212,242)" stroke-width="1" opacity="0.7411764705882353" d="M 212.5 251 L 216 251.5 L 212.5 252 L 212.5 251 Z " /><path fill="rgb(116,212,242)" stroke="rgb(116,212,242)" stroke-width="1" opacity="0.7411764705882353" d="M 180.5 253 L 186 253.5 L 179.5 255 L 180.5 253 Z " /><path fill="rgb(116,212,242)" stroke="rgb(116,212,242)" stroke-width="1" opacity="0.7411764705882353" d="M 197.5 253 L 201 253.5 L 197.5 254 L 197.5 253 Z " /><path fill="rgb(116,212,242)" stroke="rgb(116,212,242)" stroke-width="1" opacity="0.7411764705882353" d="M 214.5 258 L 215 260.5 L 214 260.5 L 214.5 258 Z " /><path fill="rgb(116,212,242)" stroke="rgb(116,212,242)" stroke-width="1" opacity="0.7411764705882353" d="M 258.5 258 L 259 265.5 L 258 265.5 L 258.5 258 Z " /><path fill="rgb(116,212,242)" stroke="rgb(116,212,242)" stroke-width="1" opacity="0.7411764705882353" d="M 171.5 268 L 167.5 273 L 171.5 268 Z " /><path fill="rgb(116,212,242)" stroke="rgb(116,212,242)" stroke-width="1" opacity="0.7411764705882353" d="M 349.5 269 L 349 270.5 L 346.5 275 L 347 273.5 L 349.5 269 Z " /><path fill="rgb(116,212,242)" stroke="rgb(116,212,242)" stroke-width="1" opacity="0.7411764705882353" d="M 344.5 270 L 343.5 272 L 344.5 270 Z " /><path fill="rgb(116,212,242)" stroke="rgb(116,212,242)" stroke-width="1" opacity="0.7411764705882353" d="M 193.5 273 L 192.5 275 L 193.5 273 Z " /><path fill="rgb(116,212,242)" stroke="rgb(116,212,242)" stroke-width="1" opacity="0.7411764705882353" d="M 258.5 276 L 259 277.5 L 257 278.5 L 258.5 276 Z " /><path fill="rgb(116,212,242)" stroke="rgb(116,212,242)" stroke-width="1" opacity="0.7411764705882353" d="M 340.5 277 L 339.5 279 L 340.5 277 Z " /><path fill="rgb(116,212,242)" stroke="rgb(116,212,242)" stroke-width="1" opacity="0.7411764705882353" d="M 182.5 278 L 177.5 284 L 182.5 278 Z " /><path fill="rgb(116,212,242)" stroke="rgb(116,212,242)" stroke-width="1" opacity="0.7411764705882353" d="M 200.5 278 L 199.5 280 L 200.5 278 Z " /><path fill="rgb(116,212,242)" stroke="rgb(116,212,242)" stroke-width="1" opacity="0.7411764705882353" d="M 207.5 278 L 207 279.5 L 203.5 285 L 204 283.5 L 207.5 278 Z " /><path fill="rgb(116,212,242)" stroke="rgb(116,212,242)" stroke-width="1" opacity="0.7411764705882353" d="M 344.5 278 L 343.5 280 L 344.5 278 Z " /><path fill="rgb(116,212,242)" stroke="rgb(116,212,242)" stroke-width="1" opacity="0.7411764705882353" d="M 188.5 280 L 186.5 283 L 188.5 280 Z " /><path fill="rgb(116,212,242)" stroke="rgb(116,212,242)" stroke-width="1" opacity="0.7411764705882353" d="M 336.5 283 L 335.5 285 L 336.5 283 Z " /><path fill="rgb(116,212,242)" stroke="rgb(116,212,242)" stroke-width="1" opacity="0.7411764705882353" d="M 340.5 284 L 340 285.5 L 331.5 297 L 334 293.5 L 340.5 284 Z " /><path fill="rgb(116,212,242)" stroke="rgb(116,212,242)" stroke-width="1" opacity="0.7411764705882353" d="M 202.5 286 L 201.5 288 L 202.5 286 Z " /><path fill="rgb(116,212,242)" stroke="rgb(116,212,242)" stroke-width="1" opacity="0.7411764705882353" d="M 334.5 286 L 333.5 288 L 334.5 286 Z " /><path fill="rgb(116,212,242)" stroke="rgb(116,212,242)" stroke-width="1" opacity="0.7411764705882353" d="M 181.5 287 L 179.5 290 L 181.5 287 Z " /><path fill="rgb(116,212,242)" stroke="rgb(116,212,242)" stroke-width="1" opacity="0.7411764705882353" d="M 40.5 288 L 41.5 290 L 40.5 288 Z " /><path fill="rgb(116,212,242)" stroke="rgb(116,212,242)" stroke-width="1" opacity="0.7411764705882353" d="M 332.5 289 L 330.5 292 L 332.5 289 Z " /><path fill="rgb(116,212,242)" stroke="rgb(116,212,242)" stroke-width="1" opacity="0.7411764705882353" d="M 199.5 290 L 194.5 296 L 199.5 290 Z " /><path fill="rgb(116,212,242)" stroke="rgb(116,212,242)" stroke-width="1" opacity="0.7411764705882353" d="M 82.5 291 L 83.5 293 L 82.5 291 Z " /><path fill="rgb(116,212,242)" stroke="rgb(116,212,242)" stroke-width="1" opacity="0.7411764705882353" d="M 329.5 293 L 326.5 297 L 329.5 293 Z " /><path fill="rgb(116,212,242)" stroke="rgb(116,212,242)" stroke-width="1" opacity="0.7411764705882353" d="M 46.5 296 L 47.5 298 L 46.5 296 Z " /><path fill="rgb(116,212,242)" stroke="rgb(116,212,242)" stroke-width="1" opacity="0.7411764705882353" d="M 184.5 296 L 183.5 298 L 184.5 296 Z " /><path fill="rgb(116,212,242)" stroke="rgb(116,212,242)" stroke-width="1" opacity="0.7411764705882353" d="M 141.5 298 L 144 298.5 L 141.5 299 L 141.5 298 Z " /><path fill="rgb(116,212,242)" stroke="rgb(116,212,242)" stroke-width="1" opacity="0.7411764705882353" d="M 191.5 298 L 190.5 300 L 191.5 298 Z " /><path fill="rgb(116,212,242)" stroke="rgb(116,212,242)" stroke-width="1" opacity="0.7411764705882353" d="M 325.5 298 L 323.5 301 L 325.5 298 Z " /><path fill="rgb(116,212,242)" stroke="rgb(116,212,242)" stroke-width="1" opacity="0.7411764705882353" d="M 330.5 298 L 327.5 302 L 330.5 298 Z " /><path fill="rgb(116,212,242)" stroke="rgb(116,212,242)" stroke-width="1" opacity="0.7411764705882353" d="M 321.5 302 L 320.5 304 L 321.5 302 Z " /><path fill="rgb(116,212,242)" stroke="rgb(116,212,242)" stroke-width="1" opacity="0.7411764705882353" d="M 325.5 304 L 308.5 322 L 325.5 304 Z " /><path fill="rgb(116,212,242)" stroke="rgb(116,212,242)" stroke-width="1" opacity="0.7411764705882353" d="M 60.5 311 L 63.5 315 L 60.5 311 Z " /><path fill="rgb(116,212,242)" stroke="rgb(116,212,242)" stroke-width="1" opacity="0.7411764705882353" d="M 135.5 313 L 141 313.5 L 135.5 314 L 135.5 313 Z " /><path fill="rgb(116,212,242)" stroke="rgb(116,212,242)" stroke-width="1" opacity="0.7411764705882353" d="M 57.5 314 L 59.5 317 L 57.5 314 Z " /><path fill="rgb(116,212,242)" stroke="rgb(116,212,242)" stroke-width="1" opacity="0.7411764705882353" d="M 308.5 315 L 302.5 322 L 308.5 315 Z " /><path fill="rgb(116,212,242)" stroke="rgb(116,212,242)" stroke-width="1" opacity="0.7411764705882353" d="M 71.5 321 L 72.5 323 L 71.5 321 Z " /><path fill="rgb(116,212,242)" stroke="rgb(116,212,242)" stroke-width="1" opacity="0.7411764705882353" d="M 300.5 322 L 298.5 325 L 300.5 322 Z " /><path fill="rgb(116,212,242)" stroke="rgb(116,212,242)" stroke-width="1" opacity="0.7411764705882353" d="M 306.5 322 L 303.5 326 L 306.5 322 Z " /><path fill="rgb(116,212,242)" stroke="rgb(116,212,242)" stroke-width="1" opacity="0.7411764705882353" d="M 301.5 326 L 298.5 330 L 301.5 326 Z " /><path fill="rgb(116,212,242)" stroke="rgb(116,212,242)" stroke-width="1" opacity="0.7411764705882353" d="M 296.5 330 L 295.5 332 L 296.5 330 Z " /><path fill="rgb(116,212,242)" stroke="rgb(116,212,242)" stroke-width="1" opacity="0.7411764705882353" d="M 292.5 333 L 291.5 335 L 292.5 333 Z " /><path fill="rgb(116,212,242)" stroke="rgb(116,212,242)" stroke-width="1" opacity="0.7411764705882353" d="M 90.5 339 L 91.5 341 L 90.5 339 Z " /><path fill="rgb(116,212,242)" stroke="rgb(116,212,242)" stroke-width="1" opacity="0.7411764705882353" d="M 275.5 339 L 274.5 341 L 275.5 339 Z " /><path fill="rgb(116,212,242)" stroke="rgb(116,212,242)" stroke-width="1" opacity="0.7411764705882353" d="M 281.5 340 L 280.5 342 L 281.5 340 Z " /><path fill="rgb(116,212,242)" stroke="rgb(116,212,242)" stroke-width="1" opacity="0.7411764705882353" d="M 272.5 345 L 271.5 347 L 272.5 345 Z " /><path fill="rgb(116,212,242)" stroke="rgb(116,212,242)" stroke-width="1" opacity="0.7411764705882353" d="M 198.5 362 L 202 362.5 L 198.5 363 L 198.5 362 Z " /><path fill="rgb(116,212,242)" stroke="rgb(116,212,242)" stroke-width="1" opacity="0.7411764705882353" d="M 175.5 366 L 178 366.5 L 175.5 367 L 175.5 366 Z " /><path fill="rgb(116,212,242)" stroke="rgb(116,212,242)" stroke-width="1" opacity="0.7411764705882353" d="M 194.5 366 L 199 366.5 L 194.5 367 L 194.5 366 Z " /></svg>